<?xml version="1.0" encoding="utf-8"?><svg xmlns="http://www.w3.org/2000/svg" xmlns:xlink="http://www.w3.org/1999/xlink"><symbol fill="currentColor" viewBox="0 0 20 18" id="actionmenu-headphones" xmlns="http://www.w3.org/2000/svg"><path d="M2.102 8.331c0 .256.117.461.315.564v.908c-.366.19-.564.6-.527 1.106.117.894.769 2.402 1.545 3.626 1.077 1.78 1.721 2.41 2.424 2.41.945 0 1.392-.88.865-1.81L3.999 10.31c-.205-.36-.498-.557-.864-.601v-.864c.146-.103.234-.286.234-.513.03-3.896 2.388-6.394 6.174-6.394 3.787 0 6.138 2.498 6.167 6.394 0 .227.088.41.242.513v.864c-.366.044-.666.242-.864.6l-2.732 4.827c-.527.93-.073 1.81.864 1.81.703 0 1.348-.63 2.425-2.41.776-1.223 1.428-2.732 1.545-3.626.037-.505-.161-.915-.527-1.106v-.908c.197-.103.314-.308.314-.564 0-4.556-2.834-7.668-7.434-7.668-4.606 0-7.44 3.112-7.44 7.668zm3.15-3.735c1.186-.652 2.6-.974 4.291-.967 1.685-.007 3.099.315 4.285.967-.945-1.26-2.344-1.912-4.285-1.912-1.948 0-3.347.652-4.292 1.912zm5.705 10.847c.3.168.579.095.74-.19l3.017-5.325c.162-.271.088-.557-.212-.725-.498-.286-1.091-.088-1.414.468l-2.446 4.322c-.315.549-.176 1.172.315 1.45zm-2.834 0c.49-.278.63-.901.315-1.45L5.99 9.67c-.315-.556-.908-.754-1.406-.468-.308.168-.374.454-.22.725l3.018 5.324c.16.286.44.36.74.19z" fill-opacity=".6"/></symbol><symbol fill="currentColor" viewBox="0 0 19 19" id="actionmenu-invite" xmlns="http://www.w3.org/2000/svg"><path d="M10.313 8.866c1.765 0 3.2-1.56 3.2-3.48 0-1.882-1.428-3.39-3.2-3.39-1.765 0-3.208 1.523-3.208 3.405.007 1.912 1.436 3.465 3.208 3.465zm0-1.267c-1.018 0-1.875-.96-1.875-2.198-.007-1.208.85-2.138 1.875-2.138s1.875.923 1.875 2.124c0 1.238-.85 2.212-1.875 2.212zm-1.64 8.078h6.203c1.26 0 1.868-.395 1.868-1.252 0-2.007-2.505-4.702-6.438-4.702a7.533 7.533 0 00-3.34.754c.359.286.674.615.93.989a6.036 6.036 0 012.41-.476c3.237 0 5.053 2.11 5.053 3.23 0 .139-.066.19-.241.19h-6.24a4.327 4.327 0 01-.206 1.267zm-4.6 2.395c2.043 0 3.772-1.706 3.772-3.764 0-2.066-1.707-3.772-3.772-3.772C2.007 10.536.3 12.242.3 14.308c0 2.065 1.706 3.764 3.772 3.764zm0-1.377c-.3 0-.498-.197-.498-.498v-1.391H2.183a.473.473 0 01-.498-.498c0-.3.198-.498.498-.498h1.392v-1.392c0-.293.197-.498.498-.498.3 0 .498.205.498.498v1.392h1.391c.293 0 .498.197.498.498 0 .3-.205.498-.498.498H4.571v1.391c0 .3-.198.498-.498.498z" fill-opacity=".6"/></symbol><symbol fill="currentColor" viewBox="0 0 320 91" id="actionmenu-soundtrack-bg" xmlns="http://www.w3.org/2000/svg"><g filter="url(#ca)"><path d="M0 0h320v84H173.783c-2.462 0-4.865.757-6.882 2.17l-4.607 3.224a4 4 0 01-4.588 0l-4.607-3.225A12.002 12.002 0 00146.217 84H0V0z" fill-opacity=".5"/></g><defs><filter id="ca" x="-50" y="-50" width="420" height="190.117" filterUnits="userSpaceOnUse" color-interpolation-filters="sRGB"><feFlood flood-opacity="0" result="BackgroundImageFix"/><feGaussianBlur in="BackgroundImageFix" stdDeviation="25"/><feComposite in2="SourceAlpha" operator="in" result="effect1_backgroundBlur_0_197"/><feBlend in="SourceGraphic" in2="effect1_backgroundBlur_0_197" result="shape"/></filter></defs></symbol><symbol fill="currentColor" viewBox="0 0 25 24" id="actiontop-bell" xmlns="http://www.w3.org/2000/svg"><path d="M5.68 14.872c0 .492.383.82 1.012.82h2.707c.055 1.244 1.039 2.352 2.44 2.352 1.402 0 2.386-1.1 2.448-2.352h2.7c.629 0 1.012-.328 1.012-.82 0-.663-.65-1.244-1.217-1.818-.438-.445-.547-1.354-.609-2.147-.061-2.515-.738-4.156-2.447-4.778-.226-.848-.93-1.51-1.887-1.51s-1.654.662-1.886 1.51c-1.71.622-2.386 2.263-2.448 4.778-.054.793-.17 1.702-.608 2.147-.567.574-1.217 1.155-1.217 1.818zm1.354-.219v-.082c.136-.184.52-.553.847-.93.458-.512.677-1.38.732-2.631.061-2.755.889-3.65 1.975-3.945.165-.04.253-.116.26-.287.027-.67.403-1.128.991-1.128s.971.458.992 1.128c.013.171.102.246.26.287 1.086.294 1.913 1.19 1.975 3.945.061 1.25.273 2.119.731 2.632.335.376.711.745.841.93v.081H7.034zm3.445 1.04h2.728c-.048.854-.602 1.4-1.368 1.4-.765 0-1.312-.546-1.36-1.4z" fill-opacity=".6"/></symbol><symbol fill="currentColor" viewBox="0 0 25 24" id="actiontop-chat" xmlns="http://www.w3.org/2000/svg"><path d="M7.673 18.16c.875 0 2.68-.875 4.006-1.825 4.525.11 7.916-2.495 7.916-5.906 0-3.282-3.288-5.92-7.383-5.92-4.102 0-7.39 2.638-7.39 5.92 0 2.126 1.347 4.012 3.39 4.97-.293.553-.82 1.298-1.107 1.681-.362.479-.136 1.08.568 1.08zm.71-1.155c-.06.027-.088-.014-.047-.069.355-.43.861-1.093 1.087-1.517.184-.342.13-.643-.28-.84-2.01-.937-3.172-2.434-3.172-4.15 0-2.632 2.761-4.779 6.24-4.779 3.473 0 6.235 2.147 6.235 4.779 0 2.638-2.762 4.785-6.234 4.785-.13 0-.322-.007-.568-.014-.28 0-.485.082-.731.28-.793.575-1.948 1.293-2.53 1.525z" fill-opacity=".6"/></symbol><symbol fill="currentColor" viewBox="0 0 24 24" id="actiontop-mail" xmlns="http://www.w3.org/2000/svg"><path d="M5.712 17.32h11.15c1.367 0 2.057-.691 2.057-2.038V7.394c0-1.347-.69-2.038-2.058-2.038H5.713c-1.367 0-2.064.684-2.064 2.038v7.888c0 1.354.697 2.037 2.064 2.037zm.034-1.122c-.629 0-.977-.335-.977-.991V7.462c0-.656.348-.991.977-.991h11.081c.622 0 .978.335.978.99v7.746c0 .656-.356.991-.978.991H5.747zm8.942-4.97a1.55 1.55 0 001.545-1.551c0-.855-.698-1.552-1.545-1.552a1.55 1.55 0 00-1.552 1.552c0 .861.69 1.552 1.552 1.552zm-7.896-1.88h4.088a.46.46 0 00.458-.464.454.454 0 00-.458-.458H6.792a.454.454 0 00-.458.458.46.46 0 00.458.465zm0 1.716h2.98c.26 0 .466-.198.466-.458a.46.46 0 00-.465-.458h-2.98a.454.454 0 00-.459.458c0 .26.198.459.458.459z" fill-opacity=".6"/></symbol><symbol fill="currentColor" viewBox="0 0 24 24" id="actiontop-setting" xmlns="http://www.w3.org/2000/svg"><path d="M10.969 19.71h1.578c.602 0 1.063-.366 1.203-.944l.336-1.461.25-.086L15.61 18c.507.32 1.093.242 1.523-.188l1.094-1.085c.43-.43.508-1.024.187-1.524l-.797-1.265.094-.235 1.461-.344c.57-.14.945-.609.945-1.203V10.61a1.2 1.2 0 00-.945-1.203l-1.445-.351-.102-.25.797-1.266c.32-.5.242-1.086-.187-1.523L17.14 4.922c-.422-.422-1.008-.5-1.516-.188l-1.273.782-.266-.102-.336-1.46a1.194 1.194 0 00-1.203-.946H10.97c-.602 0-1.063.367-1.203.945l-.344 1.461-.266.102-1.265-.782c-.508-.312-1.102-.234-1.524.188L5.281 6.016c-.43.437-.515 1.023-.187 1.523l.79 1.266-.095.25-1.445.351a1.2 1.2 0 00-.945 1.203v1.547c0 .594.375 1.063.945 1.203l1.46.344.087.235-.79 1.265c-.327.5-.241 1.094.188 1.524l1.086 1.085c.43.43 1.024.508 1.531.188l1.266-.781.25.086.344 1.46c.14.579.601.946 1.203.946zm.125-1.218c-.133 0-.203-.055-.227-.18l-.468-1.937a4.413 4.413 0 01-1.258-.516l-1.703 1.047c-.094.07-.196.055-.29-.039l-.921-.922c-.086-.086-.094-.18-.031-.289l1.046-1.687a5.694 5.694 0 01-.507-1.25l-1.938-.461c-.125-.024-.18-.094-.18-.227v-1.304c0-.141.047-.204.18-.227l1.93-.469c.125-.508.36-.969.5-1.258l-1.04-1.687c-.07-.117-.062-.211.024-.305l.93-.906c.094-.094.18-.11.297-.04L9.125 6.86a6.337 6.337 0 011.281-.515l.461-1.938c.024-.125.094-.18.227-.18h1.328c.133 0 .203.055.219.18l.476 1.953c.485.125.907.32 1.258.508l1.696-1.031c.125-.07.203-.055.304.039l.922.906c.094.094.094.188.024.305l-1.04 1.687c.149.29.376.75.5 1.258l1.938.469c.125.023.18.086.18.227v1.304c0 .133-.063.203-.18.227l-1.945.46c-.125.477-.32.923-.508 1.25l1.047 1.688c.062.11.062.203-.031.29l-.915.921c-.101.094-.195.11-.296.04l-1.704-1.048a4.36 4.36 0 01-1.25.516l-.476 1.938c-.016.125-.086.18-.219.18h-1.328zm.664-4.148a2.993 2.993 0 002.977-2.985c0-1.625-1.344-2.968-2.977-2.968-1.633 0-2.984 1.343-2.984 2.968a3 3 0 002.984 2.985zm0-1.211a1.776 1.776 0 01-1.766-1.774c0-.96.797-1.757 1.766-1.757.953 0 1.75.796 1.75 1.757 0 .97-.797 1.774-1.75 1.774z" fill-opacity=".6"/></symbol><symbol fill="currentColor" viewBox="0 0 30 32" id="activemenu-avatar-border" xmlns="http://www.w3.org/2000/svg"><path d="M13 1.155a4 4 0 014 0l9.856 5.69a4 4 0 012 3.464v11.382a4 4 0 01-2 3.464L17 30.845a4 4 0 01-4 0l-9.856-5.69a4 4 0 01-2-3.464V10.309a4 4 0 012-3.464L13 1.155z" stroke="url(#ha)"/><defs><linearGradient id="ha" x1="4.2" y1="4" x2="27.4" y2="24.8" gradientUnits="userSpaceOnUse"><stop stop-color="#A73EE7"/><stop offset="1" stop-color="#00EBFF"/></linearGradient></defs></symbol><symbol fill="currentColor" viewBox="0 0 220 219" id="inspector-namespace-avatar-bg" xmlns="http://www.w3.org/2000/svg"><path opacity=".071" d="M172.987 79.181l-6.127 80.355a7.702 7.702 0 01-6.439 7.017l-74.17 12.112a7.703 7.703 0 01-7.978-3.868l-40.67-73.371a7.702 7.702 0 01.948-8.815l49.576-56.482a7.702 7.702 0 019.362-1.742l71.391 37.385a7.701 7.701 0 014.107 7.41z" stroke="url(#ia)"/><path opacity=".143" d="M179.791 106.377l-37.037 71.573a7.702 7.702 0 01-8.669 3.942l-73.006-17.831a7.704 7.704 0 01-5.833-6.678l-8.769-83.429a7.703 7.703 0 014.317-7.744l67.704-32.621a7.703 7.703 0 019.299 2.054l51.108 62.309a7.703 7.703 0 01.886 8.425z" stroke="url(#ib)"/><path opacity=".214" d="M175.429 134.069l-62.059 51.412a7.704 7.704 0 01-9.52.242l-60.236-44.94a7.703 7.703 0 01-2.76-8.426l24.527-80.223a7.703 7.703 0 017-5.442l75.067-3.574a7.702 7.702 0 017.757 5.525l22.7 77.325a7.703 7.703 0 01-2.476 8.101z" stroke="url(#ic)"/><path opacity=".286" d="M160.591 157.855l-77.213 23.076a7.702 7.702 0 01-8.858-3.497l-37.887-64.903a7.702 7.702 0 01.751-8.834l53.923-64.263a7.703 7.703 0 018.57-2.274l70.496 26.042a7.703 7.703 0 014.982 8.116l-9.318 80.047a7.704 7.704 0 01-5.446 6.49z" stroke="url(#id)"/><path opacity=".357" d="M137.641 173.952l-80.092-8.927a7.703 7.703 0 01-6.788-6.68l-9.516-74.548a7.703 7.703 0 014.144-7.838l74.745-38.085a7.702 7.702 0 018.777 1.255l54.717 51.517a7.703 7.703 0 011.415 9.417l-39.854 70.043a7.702 7.702 0 01-7.548 3.846z" stroke="url(#ie)"/><path opacity=".429" d="M110.225 179.803L39.988 140.29a7.703 7.703 0 01-3.638-8.801l20.369-72.34a7.703 7.703 0 016.877-5.596l83.684-5.851a7.702 7.702 0 017.589 4.584l30.238 68.801a7.704 7.704 0 01-2.377 9.222l-64.055 48.903a7.702 7.702 0 01-8.45.591z" stroke="url(#if)"/><path opacity=".5" d="M82.702 174.476l-49.215-63.815a7.703 7.703 0 01.09-9.523l47.015-58.63a7.703 7.703 0 018.517-2.465l79.318 27.312a7.701 7.701 0 015.194 7.185l.952 75.147a7.702 7.702 0 01-5.791 7.559l-78.07 19.988a7.703 7.703 0 01-8.01-2.758z" stroke="url(#ig)"/><path opacity=".571" d="M59.448 158.818L39.081 80.847a7.703 7.703 0 013.803-8.73l66.186-35.6a7.703 7.703 0 018.803 1.06l62.342 56.132a7.702 7.702 0 011.973 8.643l-28.486 69.545a7.701 7.701 0 01-8.285 4.696l-79.673-12.106a7.702 7.702 0 01-6.296-5.669z" stroke="url(#ih)"/><path opacity=".643" d="M44.161 135.32L55.88 55.588a7.703 7.703 0 016.912-6.55l74.835-6.909a7.702 7.702 0 017.689 4.415l35.453 76.029a7.704 7.704 0 01-1.561 8.728l-53.395 52.886a7.704 7.704 0 01-9.461 1.085l-68.61-42.275a7.702 7.702 0 01-3.58-7.677z" stroke="url(#ii)"/><path opacity=".714" d="M39.271 107.716l41.94-68.815a7.703 7.703 0 018.922-3.328l71.585 22.88a7.704 7.704 0 015.353 7.069l2.927 83.837a7.702 7.702 0 01-4.846 7.425l-69.815 27.818a7.702 7.702 0 01-9.132-2.698l-46.638-65.722a7.702 7.702 0 01-.296-8.466z" stroke="url(#ij)"/><path opacity=".786" d="M45.555 80.396l65.494-46.958a7.703 7.703 0 019.514.423l56.954 49.032a7.703 7.703 0 012.165 8.598l-30.063 78.317a7.7 7.7 0 01-7.362 4.94l-75.134-1.671a7.703 7.703 0 01-7.353-6.052l-17.25-78.72a7.703 7.703 0 013.035-7.909z" stroke="url(#ik)"/><path opacity=".857" d="M62.015 57.703L140.65 40.07a7.702 7.702 0 018.592 4.106l33.268 67.388a7.702 7.702 0 01-1.366 8.761l-58.274 60.344a7.702 7.702 0 01-8.707 1.671l-68.508-30.896A7.702 7.702 0 0141.25 143l14.88-79.203a7.703 7.703 0 015.884-6.094z" stroke="url(#il)"/><path opacity=".929" d="M86.033 43.245l79.274 14.493a7.702 7.702 0 016.305 7.137l4.292 75.03a7.7 7.7 0 01-4.68 7.53l-77.22 32.778a7.701 7.701 0 01-8.668-1.864l-50.99-55.208a7.702 7.702 0 01-.754-9.493l44.643-67.093a7.702 7.702 0 017.798-3.31z" stroke="url(#im)"/><path d="M113.79 39.322l67.31 44.315a7.703 7.703 0 013.014 9.033l-25.365 70.743a7.702 7.702 0 01-7.25 5.103H67.61a7.703 7.703 0 01-7.25-5.103L34.993 92.67a7.702 7.702 0 013.015-9.033l67.31-44.316a7.702 7.702 0 018.471 0z" stroke="url(#in)"/><defs><linearGradient id="ia" x1="86.457" y1="68.145" x2="133.272" y2="152.602" gradientUnits="userSpaceOnUse"><stop offset=".141" stop-color="#876CF5" stop-opacity="0"/><stop offset=".458" stop-color="#1FDBFA" stop-opacity=".6"/><stop offset="1" stop-color="#876CF5" stop-opacity=".36"/></linearGradient><linearGradient id="ib" x1="104.451" y1="62.407" x2="114.545" y2="158.442" gradientUnits="userSpaceOnUse"><stop offset=".141" stop-color="#876CF5" stop-opacity="0"/><stop offset=".458" stop-color="#1FDBFA" stop-opacity=".6"/><stop offset="1" stop-color="#876CF5" stop-opacity=".36"/></linearGradient><linearGradient id="ic" x1="123.259" y1="64.157" x2="95.026" y2="156.502" gradientUnits="userSpaceOnUse"><stop offset=".141" stop-color="#876CF5" stop-opacity="0"/><stop offset=".458" stop-color="#1FDBFA" stop-opacity=".6"/><stop offset="1" stop-color="#876CF5" stop-opacity=".36"/></linearGradient><linearGradient id="id" x1="139.886" y1="73.116" x2="77.815" y2="147.089" gradientUnits="userSpaceOnUse"><stop offset=".141" stop-color="#876CF5" stop-opacity="0"/><stop offset=".458" stop-color="#1FDBFA" stop-opacity=".6"/><stop offset="1" stop-color="#876CF5" stop-opacity=".36"/></linearGradient><linearGradient id="ie" x1="151.691" y1="87.859" x2="65.651" y2="131.699" gradientUnits="userSpaceOnUse"><stop offset=".141" stop-color="#876CF5" stop-opacity="0"/><stop offset=".458" stop-color="#1FDBFA" stop-opacity=".6"/><stop offset="1" stop-color="#876CF5" stop-opacity=".36"/></linearGradient><linearGradient id="if" x1="156.797" y1="106.044" x2="60.468" y2="112.78" gradientUnits="userSpaceOnUse"><stop offset=".141" stop-color="#876CF5" stop-opacity="0"/><stop offset=".458" stop-color="#1FDBFA" stop-opacity=".6"/><stop offset="1" stop-color="#876CF5" stop-opacity=".36"/></linearGradient><linearGradient id="ig" x1="154.392" y1="124.777" x2="63.088" y2="93.339" gradientUnits="userSpaceOnUse"><stop offset=".141" stop-color="#876CF5" stop-opacity="0"/><stop offset=".458" stop-color="#1FDBFA" stop-opacity=".6"/><stop offset="1" stop-color="#876CF5" stop-opacity=".36"/></linearGradient><linearGradient id="ih" x1="144.858" y1="141.082" x2="73.097" y2="76.468" gradientUnits="userSpaceOnUse"><stop offset=".141" stop-color="#876CF5" stop-opacity="0"/><stop offset=".458" stop-color="#1FDBFA" stop-opacity=".6"/><stop offset="1" stop-color="#876CF5" stop-opacity=".36"/></linearGradient><linearGradient id="ii" x1="129.711" y1="152.366" x2="88.901" y2="64.849" gradientUnits="userSpaceOnUse"><stop offset=".141" stop-color="#876CF5" stop-opacity="0"/><stop offset=".458" stop-color="#1FDBFA" stop-opacity=".6"/><stop offset="1" stop-color="#876CF5" stop-opacity=".36"/></linearGradient><linearGradient id="ij" x1="111.36" y1="156.834" x2="107.99" y2="60.329" gradientUnits="userSpaceOnUse"><stop offset=".141" stop-color="#876CF5" stop-opacity="0"/><stop offset=".458" stop-color="#1FDBFA" stop-opacity=".6"/><stop offset="1" stop-color="#876CF5" stop-opacity=".36"/></linearGradient><linearGradient id="ik" x1="92.721" y1="153.777" x2="127.327" y2="63.626" gradientUnits="userSpaceOnUse"><stop offset=".141" stop-color="#876CF5" stop-opacity="0"/><stop offset=".458" stop-color="#1FDBFA" stop-opacity=".6"/><stop offset="1" stop-color="#876CF5" stop-opacity=".36"/></linearGradient><linearGradient id="il" x1="76.76" y1="143.68" x2="143.839" y2="74.217" gradientUnits="userSpaceOnUse"><stop offset=".141" stop-color="#876CF5" stop-opacity="0"/><stop offset=".458" stop-color="#1FDBFA" stop-opacity=".6"/><stop offset="1" stop-color="#876CF5" stop-opacity=".36"/></linearGradient><linearGradient id="im" x1="66.011" y1="128.148" x2="154.899" y2="90.418" gradientUnits="userSpaceOnUse"><stop offset=".141" stop-color="#876CF5" stop-opacity="0"/><stop offset=".458" stop-color="#1FDBFA" stop-opacity=".6"/><stop offset="1" stop-color="#876CF5" stop-opacity=".36"/></linearGradient><linearGradient id="in" x1="62.186" y1="109.652" x2="158.751" y2="109.652" gradientUnits="userSpaceOnUse"><stop offset=".141" stop-color="#876CF5" stop-opacity="0"/><stop offset=".458" stop-color="#1FDBFA" stop-opacity=".6"/><stop offset="1" stop-color="#876CF5" stop-opacity=".36"/></linearGradient></defs></symbol><symbol fill="currentColor" viewBox="0 0 220 152" id="mainsection-item-medium-bg" xmlns="http://www.w3.org/2000/svg"><g clip-path="url(#ja)"><rect width="220" height="152" rx="16"/><rect x=".5" y=".5" width="219" height="151" rx="15.5" stroke="#fff" stroke-opacity=".4" style="mix-blend-mode:overlay"/></g><defs><linearGradient id="jb" x1="-24.5" y1="56.5" x2="21" y2="127.5" gradientUnits="userSpaceOnUse"><stop stop-color="#5B7FD6"/><stop offset="1" stop-color="#1BB1D0"/></linearGradient><clipPath id="ja"><path d="M0 20C0 8.954 8.954 0 20 0h200v152H20c-11.046 0-20-8.954-20-20V20z"/></clipPath></defs></symbol><symbol fill="currentColor" viewBox="0 0 13 16" id="sidemenu-nav-book" xmlns="http://www.w3.org/2000/svg"><path d="M2.926 15.454h8.987c.33 0 .585-.264.585-.586a.625.625 0 00-.417-.572c-.864-.358-1.04-1.501-.176-2.358.286-.278.594-.623.594-1.311V2.761c0-1.458-.733-2.205-2.183-2.205H2.948c-1.45 0-2.183.74-2.183 2.205v10.51c0 1.443.74 2.183 2.16 2.183zm7.31-13.704c.702 0 1.061.374 1.061 1.055v7.646c0 .366-.205.572-.578.572h-7.01V1.75h6.526zm-8.27 9.543V2.806c0-.594.271-.952.813-1.033v9.265c-.315.03-.586.117-.813.256zm2.989-6.262h5.083a.472.472 0 00.468-.468.472.472 0 00-.468-.47H4.955a.472.472 0 00-.47.47c0 .256.213.468.47.468zm0 1.912h3.86a.464.464 0 000-.93h-3.86a.466.466 0 00-.47.461c0 .256.213.469.47.469zm-1.927 7.339c-.71 0-1.091-.396-1.091-1.055 0-.615.447-1.033 1.15-1.033h7.053c.08 0 .161-.007.234-.022-.33.726-.285 1.494.088 2.11H3.028z" fill-opacity=".8"/></symbol><symbol fill="currentColor" viewBox="0 0 17 18" id="sidemenu-nav-compas" xmlns="http://www.w3.org/2000/svg"><path d="M8.378 17.347c4.531 0 8.25-3.727 8.25-8.258 0-4.523-3.726-8.25-8.25-8.25C3.847.84.128 4.566.128 9.09c0 4.531 3.727 8.258 8.25 8.258zm-3.062-4.344c-.633.274-1.118-.21-.844-.844l1.96-4.382a1.16 1.16 0 01.641-.633l4.36-1.961c.664-.29 1.133.195.86.844l-1.962 4.375c-.133.297-.336.5-.64.633l-4.375 1.968zm3.07-2.812a1.09 1.09 0 000-2.18c-.602 0-1.094.492-1.094 1.094a1.09 1.09 0 001.094 1.086z"/></symbol><symbol fill="currentColor" viewBox="0 0 21 14" id="sidemenu-nav-gaming" xmlns="http://www.w3.org/2000/svg"><path d="M3.431 13.318c.975 0 1.641-.358 2.234-1.076l1.245-1.494c.184-.213.381-.315.594-.315h6.62c.213 0 .41.102.594.315l1.245 1.494c.593.717 1.26 1.076 2.234 1.076 1.59 0 2.666-1.054 2.666-2.695 0-.703-.161-1.509-.432-2.41a37.548 37.548 0 00-1.875-4.848c-.593-1.253-.908-1.839-2.388-2.176-1.318-.3-3.135-.498-5.354-.498-2.219 0-4.035.198-5.346.498-1.487.337-1.802.923-2.395 2.176a37.556 37.556 0 00-1.875 4.848c-.271.901-.433 1.707-.433 2.41 0 1.64 1.077 2.695 2.666 2.695zm1.758-7.69c0-.359.22-.586.593-.586h1.224v-1.18c0-.365.212-.592.57-.592.345 0 .565.227.565.593v1.179h1.15c.395 0 .63.227.63.586 0 .366-.235.593-.63.593H8.14v1.187c0 .366-.22.593-.564.593-.359 0-.571-.227-.571-.593V6.22H5.782c-.373 0-.593-.227-.593-.593zm8.87-1.084a1 1 0 011.003-1.018.995.995 0 011.004 1.018.98.98 0 01-1.004.996.985.985 0 01-1.003-.996zm-2.044 2.058c0-.571.44-1.01 1.004-1.01a.993.993 0 011.003 1.01.987.987 0 01-1.003 1.003.987.987 0 01-1.004-1.003z" fill-opacity=".8"/></symbol><symbol fill="currentColor" viewBox="0 0 13 18" id="sidemenu-nav-hub" xmlns="http://www.w3.org/2000/svg"><path d="M3.483 1.827h6.76c-.037-.6-.38-.915-1.033-.915H4.523c-.652 0-.996.315-1.04.915zM2.28 3.775h9.163c-.102-.637-.41-.996-1.12-.996H3.408c-.71 0-1.025.36-1.128.996zm.696 13.323h7.991c1.274 0 2.014-.732 2.014-2.175V7.07c0-1.45-.747-2.182-2.212-2.182H2.977C1.512 4.889.765 5.62.765 7.07v7.852c0 1.443.747 2.175 2.212 2.175zm1.678-4.255c-1.348 0-2.337.784-2.688 1.662v-7.36c0-.704.373-1.062 1.047-1.062h7.72c.666 0 1.047.358 1.047 1.062v6.95c-.52-.688-1.465-1.238-2.71-1.238-1.985 0-3.23 1.421-3.23 2.535 0 .227.051.395.125.512H5.1a1.967 1.967 0 01-.066-.512c0-.828.396-1.604 1.048-2.205-.381-.227-.85-.344-1.428-.344zm4.416-.813c.828 0 1.53-.733 1.53-1.692 0-.945-.702-1.648-1.53-1.648-.82 0-1.538.725-1.53 1.662 0 .945.71 1.678 1.53 1.678zm-4.41.095c.719 0 1.334-.645 1.334-1.487 0-.82-.615-1.428-1.333-1.428s-1.34.623-1.34 1.435c0 .835.622 1.48 1.34 1.48z" fill-opacity=".8"/></symbol><symbol fill="currentColor" viewBox="0 0 10 15" id="sidemenu-nav-music" xmlns="http://www.w3.org/2000/svg"><path d="M9.283 3.35V.743c0-.381-.307-.63-.68-.55L5.034.97c-.454.095-.703.344-.703.747l.015 7.698c.03.322-.125.542-.41.593l-1.106.234c-1.4.293-2.066 1.004-2.066 2.073 0 1.077.828 1.831 2 1.831 1.055 0 2.57-.784 2.57-2.79V5.02c0-.359.06-.425.374-.498l3.179-.696a.473.473 0 00.395-.476z" fill-opacity=".8"/></symbol><symbol fill="currentColor" viewBox="0 0 16 15" id="sidemenu-nav-play" xmlns="http://www.w3.org/2000/svg"><path d="M8.065 14.825c3.882 0 7.097-3.216 7.097-7.098 0-3.881-3.223-7.097-7.105-7.097C4.183.63.967 3.846.967 7.727c0 3.882 3.216 7.098 7.098 7.098zm-1.326-4.292c-.337.205-.718.036-.718-.308V5.237c0-.344.41-.49.718-.307l4.094 2.417c.293.175.3.6 0 .776l-4.094 2.41z" fill-opacity=".8"/></symbol><symbol fill="currentColor" viewBox="0 0 15 16" id="sidemenu-nav-world" xmlns="http://www.w3.org/2000/svg"><path d="M7.335 15.095c3.882 0 7.097-3.216 7.097-7.097C14.432 4.116 11.21.9 7.328.9 3.453.9.238 4.116.238 7.998c0 3.881 3.215 7.097 7.097 7.097zm-1.904-8.46a1.075 1.075 0 00-.33-.68 10.825 10.825 0 012.813-4.03c.088.008.183.023.27.037a11.68 11.68 0 00-1.56 4.98 8.399 8.399 0 01-1.193-.307zM2.252 4.658a6.17 6.17 0 014.402-2.725 11.62 11.62 0 00-2.366 3.713 1.055 1.055 0 00-.564.184 8.087 8.087 0 01-1.472-1.172zm7.244.066a7.497 7.497 0 01.322-2.286 6.245 6.245 0 013.047 3.01 7.829 7.829 0 01-2.351 1.224 1.117 1.117 0 00-.842-.425 7.47 7.47 0 01-.176-1.523zm-.872.007c.008.637.088 1.26.227 1.868a1.012 1.012 0 00-.249.44 6.35 6.35 0 01-.527.021c-.198 0-.388-.007-.579-.015.118-1.633.6-3.193 1.407-4.585a8.65 8.65 0 00-.279 2.271zM1.241 7.998c0-.901.198-1.758.557-2.535.447.418.93.791 1.45 1.114a1.09 1.09 0 00.454 1.07c-.139.71-.22 1.435-.22 2.174A10.936 10.936 0 011.25 8.364c-.008-.117-.008-.242-.008-.366zm12.195 0a6.12 6.12 0 01-.241 1.684c-.403.213-.813.396-1.23.557a7.757 7.757 0 01-1.605-2.08c.183-.161.315-.381.359-.63a9.074 9.074 0 002.476-1.223 6.16 6.16 0 01.241 1.692zm-6.84-.169c0 .894.102 1.773.292 2.622-.11.095-.212.213-.278.344a11.008 11.008 0 01-2.256-.593c-.022-.806.044-1.604.198-2.373.242-.044.461-.176.615-.359a8.46 8.46 0 001.428.344v.015zm1.479.103c.22 0 .432-.008.644-.022a1.1 1.1 0 00.799.505c.388.784.9 1.502 1.516 2.124-.798.22-1.611.344-2.424.374a1.1 1.1 0 00-.872-.689 10.568 10.568 0 01-.271-2.307c.198.007.403.015.608.015zM1.469 9.646c.644.454 1.325.842 2.036 1.15.036.732.146 1.464.337 2.175a6.184 6.184 0 01-2.373-3.325zm5.866 4.453c-.835 0-1.64-.176-2.373-.498a9.108 9.108 0 01-.556-2.454 11.31 11.31 0 002.13.52c.147.418.536.725.997.747.242.55.52 1.084.842 1.59a6.102 6.102 0 01-1.04.095zm1.018-2c.095-.088.169-.198.227-.315a11.724 11.724 0 003.208-.557c.154.118.308.235.47.345a6.198 6.198 0 01-2.997 2.204 10.604 10.604 0 01-.908-1.677z" fill-opacity=".8"/></symbol><symbol fill="currentColor" viewBox="0 0 76 844" id="sidemenu-sidebar-bg" xmlns="http://www.w3.org/2000/svg"><g filter="url(#ra)"><path d="M28 315.619a16 16 0 0116 0l15.177 8.762a16 16 0 018 13.857v17.524a16 16 0 01-8 13.857L44 378.381a16 16 0 01-16 0l-15.177-8.762a16 16 0 01-8-13.857v-17.524a16 16 0 018-13.857L28 315.619z"/><path d="M44.5 314.753a16.999 16.999 0 00-17 0l-15.177 8.762a17 17 0 00-8.5 14.723v17.524a17 17 0 008.5 14.723l15.177 8.762a16.999 16.999 0 0017 0l15.177-8.762a17 17 0 008.5-14.723v-17.524a17 17 0 00-8.5-14.723L44.5 314.753z" stroke="url(#rc)" stroke-width="2"/></g><path d="M28 315.619a16 16 0 0116 0l15.177 8.762a16 16 0 018 13.857v17.524a16 16 0 01-8 13.857L44 378.381a16 16 0 01-16 0l-15.177-8.762a16 16 0 01-8-13.857v-17.524a16 16 0 018-13.857L28 315.619z"/><path d="M28.25 316.052a15.5 15.5 0 0115.5 0l15.177 8.762a15.5 15.5 0 017.75 13.424v17.524a15.5 15.5 0 01-7.75 13.424l-15.177 8.762a15.5 15.5 0 01-15.5 0l-15.177-8.762a15.5 15.5 0 01-7.75-13.424v-17.524a15.5 15.5 0 017.75-13.424l15.177-8.762z" stroke="#fff" stroke-opacity=".4" style="mix-blend-mode:overlay"/><g filter="url(#re)"><path d="M76 0h200c24.301 0 44 19.7 44 44v756c0 24.301-19.699 44-44 44H76V547.665a100.001 100.001 0 00-40.943-80.699l-9.042-6.617A44 44 0 018 424.841v-56.147c0-4.903.82-9.772 2.425-14.404l1.565-4.518a10 10 0 00.201-5.894l-2.653-9.772A43.996 43.996 0 018 322.576V130.809a44 44 0 0118.015-35.507l31.97-23.397A44 44 0 0076 36.398V0z" fill-opacity=".5" style="mix-blend-mode:multiply" shape-rendering="crispEdges"/></g><defs><linearGradient id="rb" x1="30.09" y1="338" x2="3.985" y2="374.265" gradientUnits="userSpaceOnUse"><stop stop-color="#C441F4"/><stop offset="1" stop-color="#00DAEA"/></linearGradient><linearGradient id="rc" x1="36" y1="311" x2="36" y2="383" gradientUnits="userSpaceOnUse"><stop stop-color="#C618FF"/><stop offset="1" stop-color="#00C3FB"/></linearGradient><linearGradient id="rd" x1="30.09" y1="342.286" x2="20.569" y2="367.535" gradientUnits="userSpaceOnUse"><stop stop-color="#C441F4"/><stop offset="1" stop-color="#00DAEA"/></linearGradient><filter id="ra" x="-1.177" y="307.475" width="74.354" height="79.05" filterUnits="userSpaceOnUse" color-interpolation-filters="sRGB"><feFlood flood-opacity="0" result="BackgroundImageFix"/><feBlend in="SourceGraphic" in2="BackgroundImageFix" result="shape"/><feGaussianBlur stdDeviation="2" result="effect1_foregroundBlur_0_119"/></filter><filter id="re" x="-22" y="-30" width="372" height="904" filterUnits="userSpaceOnUse" color-interpolation-filters="sRGB"><feFlood flood-opacity="0" result="BackgroundImageFix"/><feGaussianBlur in="BackgroundImageFix" stdDeviation="15"/><feComposite in2="SourceAlpha" operator="in" result="effect1_backgroundBlur_0_119"/><feColorMatrix in="SourceAlpha" values="0 0 0 0 0 0 0 0 0 0 0 0 0 0 0 0 0 0 127 0" result="hardAlpha"/><feOffset dx="-1"/><feComposite in2="hardAlpha" operator="out"/><feColorMatrix values="0 0 0 0 1 0 0 0 0 1 0 0 0 0 1 0 0 0 0.2 0"/><feBlend mode="overlay" in2="effect1_backgroundBlur_0_119" result="effect2_dropShadow_0_119"/><feBlend in="SourceGraphic" in2="effect2_dropShadow_0_119" result="shape"/></filter></defs></symbol><symbol fill="currentColor" viewBox="0 0 320 174" id="test" xmlns="http://www.w3.org/2000/svg"><path fill-rule="evenodd" clip-rule="evenodd" d="M183.713 12.072L168 3a16 16 0 00-16 0l-15.713 9.072a16 16 0 00-8 13.856v12.824c-23.634-1.755-48.593-5.045-70.151-8.385-27.58-4.274-41.37-6.41-49.753.773C0 38.324 0 51.91 0 79.078V178h320V79.078c0-27.17 0-40.754-8.383-47.938-8.382-7.184-22.172-5.047-49.753-.773-21.558 3.34-46.517 6.63-70.151 8.385V25.928a16 16 0 00-8-13.856zm4 26.963V25.928a12 12 0 00-6-10.392L166 6.464a12 12 0 00-12 0l-15.713 9.072a12 12 0 00-6 10.392v13.107c9.613.646 18.959 1.02 27.713 1.02 8.754 0 18.1-.374 27.713-1.02z" fill-opacity=".3"/></symbol></svg>