<svg xmlns="http://www.w3.org/2000/svg" width="24" height="24" fill="none"><path fill="#fff" fill-opacity=".6" d="M5.712 17.32h11.15c1.367 0 2.057-.691 2.057-2.038V7.394c0-1.347-.69-2.038-2.058-2.038H5.713c-1.367 0-2.064.684-2.064 2.038v7.888c0 1.354.697 2.037 2.064 2.037m.034-1.122c-.629 0-.977-.335-.977-.991V7.462c0-.656.348-.991.977-.991h11.081c.622 0 .978.335.978.99v7.746c0 .656-.356.991-.978.991zm8.942-4.97a1.55 1.55 0 0 0 1.545-1.551c0-.855-.698-1.552-1.545-1.552a1.55 1.55 0 0 0-1.552 1.552c0 .861.69 1.552 1.552 1.552m-7.896-1.88h4.088a.46.46 0 0 0 .458-.464.454.454 0 0 0-.458-.458H6.792a.454.454 0 0 0-.458.458.46.46 0 0 0 .458.465m0 1.717h2.98a.46.46 0 1 0 0-.916h-2.98a.454.454 0 0 0-.458.457c0 .26.198.459.458.459"/></svg>