<svg xmlns="http://www.w3.org/2000/svg" width="220" height="219" fill="none"><path stroke="url(#a)" d="m172.987 79.182-6.127 80.354a7.7 7.7 0 0 1-6.439 7.017l-74.17 12.112a7.7 7.7 0 0 1-7.978-3.868l-40.67-73.371a7.7 7.7 0 0 1 .948-8.815l49.576-56.482a7.7 7.7 0 0 1 9.362-1.742l71.391 37.385a7.7 7.7 0 0 1 4.107 7.41Z" opacity=".071"/><path stroke="url(#b)" d="m179.791 106.377-37.037 71.573a7.7 7.7 0 0 1-8.669 3.942l-73.006-17.831a7.7 7.7 0 0 1-5.833-6.678l-8.769-83.429a7.7 7.7 0 0 1 4.317-7.744l67.704-32.621a7.7 7.7 0 0 1 9.299 2.054l51.108 62.309a7.7 7.7 0 0 1 .886 8.425Z" opacity=".143"/><path stroke="url(#c)" d="m175.429 134.069-62.059 51.412a7.704 7.704 0 0 1-9.52.242l-60.236-44.94a7.7 7.7 0 0 1-2.76-8.426l24.527-80.223a7.7 7.7 0 0 1 7-5.442l75.067-3.574a7.7 7.7 0 0 1 7.757 5.525l22.7 77.325a7.7 7.7 0 0 1-2.476 8.101Z" opacity=".214"/><path stroke="url(#d)" d="m160.591 157.855-77.213 23.076a7.7 7.7 0 0 1-8.858-3.497l-37.887-64.903a7.7 7.7 0 0 1 .751-8.834l53.923-64.263a7.7 7.7 0 0 1 8.57-2.274l70.496 26.042a7.7 7.7 0 0 1 4.982 8.116l-9.318 80.047a7.7 7.7 0 0 1-5.446 6.49Z" opacity=".286"/><path stroke="url(#e)" d="m137.641 173.952-80.092-8.927a7.7 7.7 0 0 1-6.788-6.68l-9.516-74.548a7.7 7.7 0 0 1 4.144-7.838l74.745-38.085a7.7 7.7 0 0 1 8.777 1.255l54.717 51.517a7.7 7.7 0 0 1 1.415 9.417l-39.854 70.043a7.7 7.7 0 0 1-7.548 3.846Z" opacity=".357"/><path stroke="url(#f)" d="M110.225 179.803 39.988 140.29a7.7 7.7 0 0 1-3.638-8.801l20.369-72.34a7.7 7.7 0 0 1 6.877-5.596l83.684-5.851a7.7 7.7 0 0 1 7.589 4.584l30.238 68.801a7.704 7.704 0 0 1-2.377 9.222l-64.055 48.903a7.7 7.7 0 0 1-8.45.591Z" opacity=".429"/><path stroke="url(#g)" d="m82.702 174.476-49.215-63.815a7.7 7.7 0 0 1 .09-9.523l47.015-58.63a7.7 7.7 0 0 1 8.517-2.465l79.318 27.312a7.7 7.7 0 0 1 5.194 7.185l.952 75.147a7.7 7.7 0 0 1-5.791 7.559l-78.07 19.988a7.7 7.7 0 0 1-8.01-2.758Z" opacity=".5"/><path stroke="url(#h)" d="M59.448 158.818 39.081 80.847a7.7 7.7 0 0 1 3.803-8.73l66.186-35.6a7.7 7.7 0 0 1 8.803 1.06l62.342 56.132a7.7 7.7 0 0 1 1.973 8.643l-28.486 69.545a7.7 7.7 0 0 1-8.285 4.696l-79.673-12.106a7.7 7.7 0 0 1-6.296-5.669Z" opacity=".571"/><path stroke="url(#i)" d="M44.161 135.32 55.88 55.588a7.7 7.7 0 0 1 6.912-6.55l74.835-6.909a7.7 7.7 0 0 1 7.689 4.415l35.453 76.029a7.7 7.7 0 0 1-1.561 8.728l-53.395 52.886a7.704 7.704 0 0 1-9.461 1.085l-68.61-42.275a7.7 7.7 0 0 1-3.58-7.677Z" opacity=".643"/><path stroke="url(#j)" d="m39.271 107.716 41.94-68.815a7.7 7.7 0 0 1 8.922-3.328l71.585 22.88a7.7 7.7 0 0 1 5.353 7.069l2.927 83.837a7.7 7.7 0 0 1-4.846 7.425l-69.815 27.818a7.7 7.7 0 0 1-9.132-2.698l-46.638-65.722a7.7 7.7 0 0 1-.296-8.466Z" opacity=".714"/><path stroke="url(#k)" d="m45.555 80.396 65.494-46.957a7.7 7.7 0 0 1 9.514.422l56.954 49.032a7.7 7.7 0 0 1 2.165 8.598l-30.063 78.317a7.7 7.7 0 0 1-7.362 4.94l-75.134-1.671a7.7 7.7 0 0 1-7.353-6.052l-17.25-78.72a7.7 7.7 0 0 1 3.035-7.909Z" opacity=".786"/><path stroke="url(#l)" d="M62.015 57.703 140.65 40.07a7.7 7.7 0 0 1 8.592 4.106l33.268 67.388a7.7 7.7 0 0 1-1.366 8.761l-58.274 60.344a7.7 7.7 0 0 1-8.707 1.671l-68.508-30.896A7.7 7.7 0 0 1 41.25 143l14.88-79.203a7.7 7.7 0 0 1 5.884-6.094Z" opacity=".857"/><path stroke="url(#m)" d="m86.033 43.245 79.274 14.493a7.7 7.7 0 0 1 6.305 7.137l4.292 75.03a7.7 7.7 0 0 1-4.68 7.53l-77.22 32.778a7.7 7.7 0 0 1-8.668-1.864l-50.99-55.208a7.7 7.7 0 0 1-.754-9.493l44.643-67.093a7.7 7.7 0 0 1 7.798-3.31Z" opacity=".929"/><path stroke="url(#n)" d="m113.79 39.322 67.31 44.315a7.7 7.7 0 0 1 3.014 9.033l-25.365 70.743a7.7 7.7 0 0 1-7.25 5.103H67.61a7.7 7.7 0 0 1-7.25-5.103L34.993 92.67a7.7 7.7 0 0 1 3.015-9.033l67.31-44.315a7.7 7.7 0 0 1 8.471 0Z"/><defs><linearGradient id="a" x1="86.457" x2="133.272" y1="68.145" y2="152.602" gradientUnits="userSpaceOnUse"><stop offset=".141" stop-color="#876CF5" stop-opacity="0"/><stop offset=".458" stop-color="#1FDBFA" stop-opacity=".6"/><stop offset="1" stop-color="#876CF5" stop-opacity=".36"/></linearGradient><linearGradient id="b" x1="104.451" x2="114.545" y1="62.407" y2="158.442" gradientUnits="userSpaceOnUse"><stop offset=".141" stop-color="#876CF5" stop-opacity="0"/><stop offset=".458" stop-color="#1FDBFA" stop-opacity=".6"/><stop offset="1" stop-color="#876CF5" stop-opacity=".36"/></linearGradient><linearGradient id="c" x1="123.259" x2="95.026" y1="64.157" y2="156.502" gradientUnits="userSpaceOnUse"><stop offset=".141" stop-color="#876CF5" stop-opacity="0"/><stop offset=".458" stop-color="#1FDBFA" stop-opacity=".6"/><stop offset="1" stop-color="#876CF5" stop-opacity=".36"/></linearGradient><linearGradient id="d" x1="139.886" x2="77.815" y1="73.116" y2="147.089" gradientUnits="userSpaceOnUse"><stop offset=".141" stop-color="#876CF5" stop-opacity="0"/><stop offset=".458" stop-color="#1FDBFA" stop-opacity=".6"/><stop offset="1" stop-color="#876CF5" stop-opacity=".36"/></linearGradient><linearGradient id="e" x1="151.691" x2="65.651" y1="87.859" y2="131.699" gradientUnits="userSpaceOnUse"><stop offset=".141" stop-color="#876CF5" stop-opacity="0"/><stop offset=".458" stop-color="#1FDBFA" stop-opacity=".6"/><stop offset="1" stop-color="#876CF5" stop-opacity=".36"/></linearGradient><linearGradient id="f" x1="156.797" x2="60.468" y1="106.044" y2="112.78" gradientUnits="userSpaceOnUse"><stop offset=".141" stop-color="#876CF5" stop-opacity="0"/><stop offset=".458" stop-color="#1FDBFA" stop-opacity=".6"/><stop offset="1" stop-color="#876CF5" stop-opacity=".36"/></linearGradient><linearGradient id="g" x1="154.392" x2="63.088" y1="124.777" y2="93.339" gradientUnits="userSpaceOnUse"><stop offset=".141" stop-color="#876CF5" stop-opacity="0"/><stop offset=".458" stop-color="#1FDBFA" stop-opacity=".6"/><stop offset="1" stop-color="#876CF5" stop-opacity=".36"/></linearGradient><linearGradient id="h" x1="144.858" x2="73.097" y1="141.082" y2="76.468" gradientUnits="userSpaceOnUse"><stop offset=".141" stop-color="#876CF5" stop-opacity="0"/><stop offset=".458" stop-color="#1FDBFA" stop-opacity=".6"/><stop offset="1" stop-color="#876CF5" stop-opacity=".36"/></linearGradient><linearGradient id="i" x1="129.711" x2="88.901" y1="152.366" y2="64.849" gradientUnits="userSpaceOnUse"><stop offset=".141" stop-color="#876CF5" stop-opacity="0"/><stop offset=".458" stop-color="#1FDBFA" stop-opacity=".6"/><stop offset="1" stop-color="#876CF5" stop-opacity=".36"/></linearGradient><linearGradient id="j" x1="111.36" x2="107.99" y1="156.834" y2="60.329" gradientUnits="userSpaceOnUse"><stop offset=".141" stop-color="#876CF5" stop-opacity="0"/><stop offset=".458" stop-color="#1FDBFA" stop-opacity=".6"/><stop offset="1" stop-color="#876CF5" stop-opacity=".36"/></linearGradient><linearGradient id="k" x1="92.721" x2="127.327" y1="153.777" y2="63.626" gradientUnits="userSpaceOnUse"><stop offset=".141" stop-color="#876CF5" stop-opacity="0"/><stop offset=".458" stop-color="#1FDBFA" stop-opacity=".6"/><stop offset="1" stop-color="#876CF5" stop-opacity=".36"/></linearGradient><linearGradient id="l" x1="76.76" x2="143.839" y1="143.68" y2="74.217" gradientUnits="userSpaceOnUse"><stop offset=".141" stop-color="#876CF5" stop-opacity="0"/><stop offset=".458" stop-color="#1FDBFA" stop-opacity=".6"/><stop offset="1" stop-color="#876CF5" stop-opacity=".36"/></linearGradient><linearGradient id="m" x1="66.011" x2="154.899" y1="128.148" y2="90.418" gradientUnits="userSpaceOnUse"><stop offset=".141" stop-color="#876CF5" stop-opacity="0"/><stop offset=".458" stop-color="#1FDBFA" stop-opacity=".6"/><stop offset="1" stop-color="#876CF5" stop-opacity=".36"/></linearGradient><linearGradient id="n" x1="62.186" x2="158.751" y1="109.652" y2="109.652" gradientUnits="userSpaceOnUse"><stop offset=".141" stop-color="#876CF5" stop-opacity="0"/><stop offset=".458" stop-color="#1FDBFA" stop-opacity=".6"/><stop offset="1" stop-color="#876CF5" stop-opacity=".36"/></linearGradient></defs></svg>