<svg xmlns="http://www.w3.org/2000/svg" width="15" height="16" fill="none"><path fill="#fff" fill-opacity=".8" d="M7.335 15.095c3.882 0 7.097-3.216 7.097-7.097S11.21.9 7.328.9C3.453.9.238 4.116.238 7.998s3.215 7.097 7.097 7.097m-1.904-8.46a1.08 1.08 0 0 0-.33-.68 10.8 10.8 0 0 1 2.813-4.03c.088.008.183.023.27.037a11.7 11.7 0 0 0-1.56 4.98 8.4 8.4 0 0 1-1.193-.307M2.252 4.658a6.17 6.17 0 0 1 4.402-2.725 11.6 11.6 0 0 0-2.366 3.713 1.06 1.06 0 0 0-.564.184 8 8 0 0 1-1.472-1.172m7.244.066a7.5 7.5 0 0 1 .322-2.286 6.25 6.25 0 0 1 3.047 3.01 7.8 7.8 0 0 1-2.351 1.224 1.12 1.12 0 0 0-.842-.425 7.5 7.5 0 0 1-.176-1.523m-.872.007c.008.637.088 1.26.227 1.868a1 1 0 0 0-.249.44 6 6 0 0 1-.527.021c-.198 0-.388-.007-.579-.015.118-1.633.6-3.193 1.407-4.585a8.7 8.7 0 0 0-.279 2.271M1.241 7.998c0-.901.198-1.758.557-2.535q.67.628 1.45 1.114a1.09 1.09 0 0 0 .454 1.07c-.139.71-.22 1.435-.22 2.174A11 11 0 0 1 1.25 8.364c-.008-.117-.008-.242-.008-.366m12.195 0a6.1 6.1 0 0 1-.241 1.684q-.605.317-1.23.557a7.8 7.8 0 0 1-1.605-2.08c.183-.161.315-.381.359-.63a9 9 0 0 0 2.476-1.223 6.2 6.2 0 0 1 .241 1.692m-6.84-.169c0 .894.102 1.773.292 2.622-.11.095-.212.213-.278.344a11 11 0 0 1-2.256-.593c-.022-.806.044-1.604.198-2.373.242-.044.461-.176.615-.359a8.5 8.5 0 0 0 1.428.344zm1.479.103q.328 0 .644-.022a1.1 1.1 0 0 0 .799.505c.388.784.9 1.502 1.516 2.124-.798.22-1.611.344-2.424.374a1.1 1.1 0 0 0-.872-.689 10.6 10.6 0 0 1-.271-2.307c.198.007.403.015.608.015M1.469 9.646c.644.454 1.325.842 2.036 1.15.036.732.146 1.464.337 2.175a6.2 6.2 0 0 1-2.373-3.325m5.866 4.453c-.835 0-1.64-.176-2.373-.498a9 9 0 0 1-.556-2.454 11.3 11.3 0 0 0 2.13.52c.147.418.536.725.997.747.242.55.52 1.084.842 1.59a6 6 0 0 1-1.04.095m1.018-2c.095-.088.169-.198.227-.315a11.7 11.7 0 0 0 3.208-.557q.229.178.47.345a6.2 6.2 0 0 1-2.997 2.204 10.6 10.6 0 0 1-.908-1.677"/></svg>