<svg xmlns="http://www.w3.org/2000/svg" width="13" height="16" fill="none"><path fill="#fff" fill-opacity=".8" d="M2.926 15.454h8.987c.33 0 .585-.264.585-.586a.625.625 0 0 0-.417-.572c-.864-.358-1.04-1.501-.176-2.358.286-.278.594-.623.594-1.311V2.761c0-1.458-.733-2.205-2.183-2.205H2.948c-1.45 0-2.183.74-2.183 2.205v10.51c0 1.443.74 2.183 2.16 2.183m7.31-13.704c.702 0 1.061.374 1.061 1.055v7.646c0 .366-.205.572-.578.572h-7.01V1.75zm-8.27 9.544v-8.49c0-.593.271-.951.813-1.032v9.265q-.473.046-.813.256m2.99-6.263h5.083a.47.47 0 0 0 .468-.468.47.47 0 0 0-.468-.47H4.955a.47.47 0 0 0-.47.47c0 .256.213.468.47.468m0 1.912h3.86a.464.464 0 0 0 0-.93h-3.86a.466.466 0 0 0-.47.461c0 .256.213.469.47.469m-1.927 7.339c-.71 0-1.091-.396-1.091-1.055 0-.615.447-1.033 1.15-1.033h7.053c.08 0 .161-.007.234-.022-.33.726-.285 1.494.088 2.11z"/></svg>