<svg xmlns="http://www.w3.org/2000/svg" width="69" height="844" fill="none"><g filter="url(#a)"><path fill="#383A57" fill-opacity=".5" d="M69 0h200c24.301 0 44 19.7 44 44v756c0 24.301-19.699 44-44 44H69V547.665a100 100 0 0 0-40.943-80.699l-9.042-6.617A44 44 0 0 1 1 424.841v-56.147c0-4.903.82-9.772 2.425-14.404l1.565-4.518a10 10 0 0 0 .201-5.894l-2.653-9.772A44 44 0 0 1 1 322.576V130.809a44 44 0 0 1 18.015-35.507l31.97-23.397A44 44 0 0 0 69 36.398z" shape-rendering="crispEdges" style="mix-blend-mode:multiply"/></g><defs><filter id="a" width="372" height="904" x="-29" y="-30" color-interpolation-filters="sRGB" filterUnits="userSpaceOnUse"><feFlood flood-opacity="0" result="BackgroundImageFix"/><feGaussianBlur in="BackgroundImageFix" stdDeviation="15"/><feComposite in2="SourceAlpha" operator="in" result="effect1_backgroundBlur_0_123"/><feColorMatrix in="SourceAlpha" result="hardAlpha" values="0 0 0 0 0 0 0 0 0 0 0 0 0 0 0 0 0 0 127 0"/><feOffset dx="-1"/><feComposite in2="hardAlpha" operator="out"/><feColorMatrix values="0 0 0 0 1 0 0 0 0 1 0 0 0 0 1 0 0 0 0.2 0"/><feBlend in2="effect1_backgroundBlur_0_123" mode="overlay" result="effect2_dropShadow_0_123"/><feBlend in="SourceGraphic" in2="effect2_dropShadow_0_123" result="shape"/></filter></defs></svg>