<svg xmlns="http://www.w3.org/2000/svg" width="74" height="80" fill="none"><g filter="url(#a)"><path fill="url(#b)" d="M28 8.619a16 16 0 0 1 16 0l15.177 8.762a16 16 0 0 1 8 13.857v17.524a16 16 0 0 1-8 13.857L44 71.38a16 16 0 0 1-16 0l-15.177-8.76a16 16 0 0 1-8-13.857V31.238a16 16 0 0 1 8-13.857z"/><path stroke="url(#c)" stroke-width="2" d="M44.5 7.753a17 17 0 0 0-17 0l-15.177 8.762a17 17 0 0 0-8.5 14.723v17.524a17 17 0 0 0 8.5 14.723L27.5 72.247a17 17 0 0 0 17 0l15.177-8.762a17 17 0 0 0 8.5-14.723V31.238a17 17 0 0 0-8.5-14.723z"/></g><path fill="url(#d)" d="M28 8.619a16 16 0 0 1 16 0l15.177 8.762a16 16 0 0 1 8 13.857v17.524a16 16 0 0 1-8 13.857L44 71.38a16 16 0 0 1-16 0l-15.177-8.76a16 16 0 0 1-8-13.857V31.238a16 16 0 0 1 8-13.857z"/><path stroke="#fff" stroke-opacity=".4" d="M28.25 9.052a15.5 15.5 0 0 1 15.5 0l15.177 8.762a15.5 15.5 0 0 1 7.75 13.424v17.524a15.5 15.5 0 0 1-7.75 13.424L43.75 70.948a15.5 15.5 0 0 1-15.5 0l-15.177-8.762a15.5 15.5 0 0 1-7.75-13.424V31.238a15.5 15.5 0 0 1 7.75-13.424z" style="mix-blend-mode:overlay"/><defs><linearGradient id="b" x1="30.09" x2="3.985" y1="31" y2="67.265" gradientUnits="userSpaceOnUse"><stop stop-color="#C441F4"/><stop offset="1" stop-color="#00DAEA"/></linearGradient><linearGradient id="c" x1="36" x2="36" y1="4" y2="76" gradientUnits="userSpaceOnUse"><stop stop-color="#C618FF"/><stop offset="1" stop-color="#00C3FB"/></linearGradient><linearGradient id="d" x1="30.09" x2="20.569" y1="35.286" y2="60.535" gradientUnits="userSpaceOnUse"><stop stop-color="#C441F4"/><stop offset="1" stop-color="#00DAEA"/></linearGradient><filter id="a" width="74.354" height="79.05" x="-1.177" y=".475" color-interpolation-filters="sRGB" filterUnits="userSpaceOnUse"><feFlood flood-opacity="0" result="BackgroundImageFix"/><feBlend in="SourceGraphic" in2="BackgroundImageFix" result="shape"/><feGaussianBlur result="effect1_foregroundBlur_0_120" stdDeviation="2"/></filter></defs></svg>