<svg xmlns="http://www.w3.org/2000/svg" width="25" height="24" fill="none"><path fill="#fff" fill-opacity=".6" d="M5.68 14.872c0 .492.383.82 1.012.82h2.707c.055 1.244 1.039 2.352 2.44 2.352s2.386-1.1 2.448-2.352h2.7c.629 0 1.012-.328 1.012-.82 0-.663-.65-1.244-1.217-1.818-.438-.445-.547-1.354-.609-2.147-.061-2.515-.738-4.156-2.447-4.778-.226-.848-.93-1.51-1.887-1.51s-1.654.662-1.886 1.51c-1.71.622-2.386 2.263-2.448 4.778-.054.793-.17 1.702-.608 2.147-.567.574-1.217 1.155-1.217 1.818m1.354-.219v-.082c.136-.184.52-.553.847-.93.458-.512.677-1.38.732-2.631.061-2.755.889-3.65 1.975-3.945.165-.04.253-.116.26-.287.027-.67.403-1.128.991-1.128s.971.458.992 1.128c.013.171.102.246.26.287 1.086.294 1.913 1.19 1.975 3.945.061 1.25.273 2.119.731 2.632.335.376.711.745.841.93v.081zm3.445 1.04h2.728c-.048.854-.602 1.4-1.368 1.4-.765 0-1.312-.546-1.36-1.4"/></svg>