<svg xmlns="http://www.w3.org/2000/svg" width="76" height="844" fill="none"><g filter="url(#a)"><path fill="url(#b)" d="M28 315.619a16 16 0 0 1 16 0l15.177 8.762a16 16 0 0 1 8 13.857v17.524a16 16 0 0 1-8 13.857L44 378.381a16 16 0 0 1-16 0l-15.177-8.762a16 16 0 0 1-8-13.857v-17.524a16 16 0 0 1 8-13.857z"/><path stroke="url(#c)" stroke-width="2" d="M44.5 314.753a17 17 0 0 0-17 0l-15.177 8.762a17 17 0 0 0-8.5 14.723v17.524a17 17 0 0 0 8.5 14.723l15.177 8.762a17 17 0 0 0 17 0l15.177-8.762a17 17 0 0 0 8.5-14.723v-17.524a17 17 0 0 0-8.5-14.723z"/></g><path fill="url(#d)" d="M28 315.619a16 16 0 0 1 16 0l15.177 8.762a16 16 0 0 1 8 13.857v17.524a16 16 0 0 1-8 13.857L44 378.381a16 16 0 0 1-16 0l-15.177-8.762a16 16 0 0 1-8-13.857v-17.524a16 16 0 0 1 8-13.857z"/><path stroke="#fff" stroke-opacity=".4" d="M28.25 316.052a15.5 15.5 0 0 1 15.5 0l15.177 8.762a15.5 15.5 0 0 1 7.75 13.424v17.524a15.5 15.5 0 0 1-7.75 13.424l-15.177 8.762a15.5 15.5 0 0 1-15.5 0l-15.177-8.762a15.5 15.5 0 0 1-7.75-13.424v-17.524a15.5 15.5 0 0 1 7.75-13.424z" style="mix-blend-mode:overlay"/><g filter="url(#e)"><path fill="#383A57" fill-opacity=".5" d="M76 0h200c24.301 0 44 19.7 44 44v756c0 24.301-19.699 44-44 44H76V547.665a100 100 0 0 0-40.943-80.699l-9.042-6.617A44 44 0 0 1 8 424.841v-56.147c0-4.903.82-9.772 2.425-14.404l1.565-4.518a10 10 0 0 0 .201-5.894l-2.653-9.772A44 44 0 0 1 8 322.576V130.809a44 44 0 0 1 18.015-35.507l31.97-23.397A44 44 0 0 0 76 36.398z" shape-rendering="crispEdges" style="mix-blend-mode:multiply"/></g><defs><linearGradient id="b" x1="30.09" x2="3.985" y1="338" y2="374.265" gradientUnits="userSpaceOnUse"><stop stop-color="#C441F4"/><stop offset="1" stop-color="#00DAEA"/></linearGradient><linearGradient id="c" x1="36" x2="36" y1="311" y2="383" gradientUnits="userSpaceOnUse"><stop stop-color="#C618FF"/><stop offset="1" stop-color="#00C3FB"/></linearGradient><linearGradient id="d" x1="30.09" x2="20.569" y1="342.286" y2="367.535" gradientUnits="userSpaceOnUse"><stop stop-color="#C441F4"/><stop offset="1" stop-color="#00DAEA"/></linearGradient><filter id="a" width="74.354" height="79.05" x="-1.177" y="307.475" color-interpolation-filters="sRGB" filterUnits="userSpaceOnUse"><feFlood flood-opacity="0" result="BackgroundImageFix"/><feBlend in="SourceGraphic" in2="BackgroundImageFix" result="shape"/><feGaussianBlur result="effect1_foregroundBlur_0_119" stdDeviation="2"/></filter><filter id="e" width="372" height="904" x="-22" y="-30" color-interpolation-filters="sRGB" filterUnits="userSpaceOnUse"><feFlood flood-opacity="0" result="BackgroundImageFix"/><feGaussianBlur in="BackgroundImageFix" stdDeviation="15"/><feComposite in2="SourceAlpha" operator="in" result="effect1_backgroundBlur_0_119"/><feColorMatrix in="SourceAlpha" result="hardAlpha" values="0 0 0 0 0 0 0 0 0 0 0 0 0 0 0 0 0 0 127 0"/><feOffset dx="-1"/><feComposite in2="hardAlpha" operator="out"/><feColorMatrix values="0 0 0 0 1 0 0 0 0 1 0 0 0 0 1 0 0 0 0.2 0"/><feBlend in2="effect1_backgroundBlur_0_119" mode="overlay" result="effect2_dropShadow_0_119"/><feBlend in="SourceGraphic" in2="effect2_dropShadow_0_119" result="shape"/></filter></defs></svg>