<svg width="20" height="18" viewBox="0 0 20 18" fill="none" xmlns="http://www.w3.org/2000/svg">
<path d="M2.10205 8.33105C2.10205 8.5874 2.21924 8.79248 2.41699 8.89502V9.80322C2.05078 9.99365 1.85303 10.4038 1.88965 10.9092C2.00684 11.8027 2.65869 13.3115 3.43506 14.5347C4.51172 16.3145 5.15625 16.9443 5.85938 16.9443C6.8042 16.9443 7.25098 16.0654 6.72363 15.1353L3.99902 10.3086C3.79395 9.94971 3.50098 9.75195 3.13477 9.70801V8.84375C3.28125 8.74121 3.36914 8.55811 3.36914 8.33105C3.39844 4.43457 5.75684 1.93701 9.54346 1.93701C13.3301 1.93701 15.6812 4.43457 15.7104 8.33105C15.7104 8.55811 15.7983 8.74121 15.9521 8.84375V9.70801C15.5859 9.75195 15.2856 9.94971 15.0879 10.3086L12.356 15.1353C11.8286 16.0654 12.2827 16.9443 13.2202 16.9443C13.9233 16.9443 14.5679 16.3145 15.6445 14.5347C16.4209 13.3115 17.0728 11.8027 17.1899 10.9092C17.2266 10.4038 17.0288 9.99365 16.6626 9.80322V8.89502C16.8604 8.79248 16.9775 8.5874 16.9775 8.33105C16.9775 3.77539 14.1431 0.662598 9.54346 0.662598C4.93652 0.662598 2.10205 3.77539 2.10205 8.33105ZM5.25146 4.5957C6.43799 3.94385 7.85156 3.62158 9.54346 3.62891C11.228 3.62158 12.6416 3.94385 13.8281 4.5957C12.8833 3.33594 11.4844 2.68408 9.54346 2.68408C7.59521 2.68408 6.19629 3.33594 5.25146 4.5957ZM10.957 15.4429C11.2573 15.6113 11.5356 15.5381 11.6968 15.2524L14.7144 9.92773C14.8755 9.65674 14.8022 9.37109 14.502 9.20264C14.0039 8.91699 13.4106 9.11475 13.0884 9.67139L10.6421 13.9927C10.3271 14.542 10.4663 15.1646 10.957 15.4429ZM8.12256 15.4429C8.61328 15.1646 8.75244 14.542 8.4375 13.9927L5.99121 9.67139C5.67627 9.11475 5.08301 8.91699 4.58496 9.20264C4.27734 9.37109 4.21143 9.65674 4.36523 9.92773L7.38281 15.2524C7.54395 15.5381 7.82227 15.6113 8.12256 15.4429Z" fill="white" fill-opacity="0.6"/>
</svg>
