<svg width="19" height="19" viewBox="0 0 19 19" fill="none" xmlns="http://www.w3.org/2000/svg">
<path d="M10.313 8.86572C12.0781 8.86572 13.5137 7.30566 13.5137 5.38672C13.5137 3.50439 12.0854 1.99561 10.313 1.99561C8.54785 1.99561 7.10498 3.51904 7.10498 5.40137C7.1123 7.31299 8.54053 8.86572 10.313 8.86572ZM10.313 7.59863C9.29492 7.59863 8.43799 6.63916 8.43799 5.40137C8.43066 4.19287 9.2876 3.2627 10.313 3.2627C11.3384 3.2627 12.188 4.18555 12.188 5.38672C12.188 6.62451 11.3384 7.59863 10.313 7.59863ZM8.67236 15.6772H14.876C16.1357 15.6772 16.7437 15.2817 16.7437 14.4248C16.7437 12.418 14.2388 9.72266 10.3057 9.72266C9.03125 9.72266 7.90332 10.0156 6.96582 10.4771C7.32471 10.7627 7.63965 11.0923 7.896 11.4658C8.56982 11.1729 9.38281 10.9897 10.3057 10.9897C13.543 10.9897 15.3594 13.0991 15.3594 14.2197C15.3594 14.3589 15.2935 14.4102 15.1177 14.4102H8.87744C8.86279 14.8643 8.81152 15.2524 8.67236 15.6772ZM4.07275 18.0723C6.11621 18.0723 7.84473 16.3657 7.84473 14.3076C7.84473 12.2422 6.13818 10.5356 4.07275 10.5356C2.00732 10.5356 0.300781 12.2422 0.300781 14.3076C0.300781 16.373 2.00732 18.0723 4.07275 18.0723ZM4.07275 16.6953C3.77246 16.6953 3.57471 16.4976 3.57471 16.1973V14.8057H2.18311C1.89014 14.8057 1.68506 14.6079 1.68506 14.3076C1.68506 14.0073 1.88281 13.8096 2.18311 13.8096H3.57471V12.418C3.57471 12.125 3.77246 11.9199 4.07275 11.9199C4.37305 11.9199 4.5708 12.125 4.5708 12.418V13.8096H5.9624C6.25537 13.8096 6.46045 14.0073 6.46045 14.3076C6.46045 14.6079 6.25537 14.8057 5.9624 14.8057H4.5708V16.1973C4.5708 16.4976 4.37305 16.6953 4.07275 16.6953Z" fill="white" fill-opacity="0.6"/>
</svg>
