<svg width="25" height="24" viewBox="0 0 25 24" fill="none" xmlns="http://www.w3.org/2000/svg">
<path d="M5.68021 14.8721C5.68021 15.3643 6.06302 15.6924 6.69193 15.6924H9.39896C9.45364 16.9365 10.438 18.0439 11.8394 18.0439C13.2408 18.0439 14.2251 16.9434 14.2867 15.6924H16.9868C17.6158 15.6924 17.9986 15.3643 17.9986 14.8721C17.9986 14.209 17.3492 13.6279 16.7818 13.0537C16.3443 12.6094 16.2349 11.7002 16.1734 10.9072C16.1118 8.3916 15.4351 6.75098 13.7261 6.12891C13.5005 5.28125 12.7964 4.61816 11.8394 4.61816C10.8824 4.61816 10.1851 5.28125 9.95267 6.12891C8.24368 6.75098 7.56693 8.3916 7.5054 10.9072C7.45071 11.7002 7.3345 12.6094 6.897 13.0537C6.32962 13.6279 5.68021 14.209 5.68021 14.8721ZM7.03372 14.6533V14.5713C7.17044 14.3867 7.55325 14.0176 7.88138 13.6416C8.33939 13.1289 8.55814 12.2607 8.61282 11.0098C8.67435 8.25488 9.5015 7.35938 10.5884 7.06543C10.7525 7.02441 10.8413 6.94922 10.8482 6.77832C10.8755 6.1084 11.2515 5.65039 11.8394 5.65039C12.4273 5.65039 12.8101 6.1084 12.8306 6.77832C12.8443 6.94922 12.9331 7.02441 13.0904 7.06543C14.1773 7.35938 15.0044 8.25488 15.0659 11.0098C15.1275 12.2607 15.3394 13.1289 15.7974 13.6416C16.1324 14.0176 16.5083 14.3867 16.6382 14.5713V14.6533H7.03372ZM10.479 15.6924H13.2066C13.1587 16.5469 12.605 17.0938 11.8394 17.0938C11.0738 17.0938 10.5269 16.5469 10.479 15.6924Z" fill="white" fill-opacity="0.6"/>
</svg>
