<svg width="220" height="219" viewBox="0 0 220 219" fill="none" xmlns="http://www.w3.org/2000/svg">
<path opacity="0.0714286" d="M172.987 79.1815L166.86 159.536C166.59 163.081 163.93 165.98 160.421 166.553L86.2512 178.665C83.042 179.189 79.8495 177.641 78.273 174.797L37.603 101.426C36.0265 98.5823 36.4059 95.0547 38.5509 92.6109L88.1266 36.1292C90.4714 33.4577 94.3398 32.7378 97.4888 34.3868L168.88 71.7723C171.607 73.1999 173.221 76.1131 172.987 79.1815Z" stroke="url(#paint0_linear_0_381)"/>
<path opacity="0.142857" d="M179.791 106.377L142.754 177.95C141.12 181.107 137.538 182.736 134.085 181.892L61.0787 164.061C57.9199 163.289 55.5858 160.617 55.2459 157.383L46.4771 73.954C46.1373 70.7202 47.8648 67.6212 50.7941 66.2098L118.498 33.5889C121.7 32.046 125.542 32.8948 127.797 35.6431L178.905 97.9516C180.857 100.331 181.205 103.644 179.791 106.377Z" stroke="url(#paint1_linear_0_381)"/>
<path opacity="0.214286" d="M175.429 134.069L113.37 185.481C110.633 187.748 106.699 187.848 103.85 185.723L43.6144 140.783C41.0082 138.838 39.9037 135.467 40.8544 132.357L65.3811 52.1339C66.3318 49.0243 69.1328 46.8467 72.3808 46.692L147.448 43.1184C150.999 42.9493 154.204 45.2319 155.205 48.6426L177.905 125.968C178.772 128.92 177.798 132.106 175.429 134.069Z" stroke="url(#paint2_linear_0_381)"/>
<path opacity="0.285714" d="M160.591 157.855L83.378 180.931C79.9722 181.949 76.3123 180.504 74.5203 177.434L36.6326 112.531C34.9933 109.723 35.2941 106.188 37.3842 103.697L91.3068 39.4342C93.3969 36.9432 96.8262 36.0332 99.8764 37.1599L170.373 63.2016C173.707 64.4334 175.766 67.7868 175.355 71.3176L166.037 151.365C165.681 154.422 163.54 156.973 160.591 157.855Z" stroke="url(#paint3_linear_0_381)"/>
<path opacity="0.357143" d="M137.641 173.952L57.5486 165.025C54.0159 164.631 51.2114 161.871 50.7613 158.345L41.2453 83.7969C40.8336 80.5714 42.4918 77.4348 45.389 75.9586L120.134 37.8739C123.032 36.3977 126.544 36.8999 128.911 39.1289L183.628 90.6456C186.216 93.0822 186.801 96.9734 185.043 100.063L145.189 170.106C143.667 172.781 140.699 174.293 137.641 173.952Z" stroke="url(#paint4_linear_0_381)"/>
<path opacity="0.428571" d="M110.225 179.803L39.9878 140.29C36.8898 138.547 35.3867 134.911 36.3501 131.489L56.7187 59.1497C57.6 56.0197 60.3519 53.7803 63.5957 53.5535L147.28 47.7017C150.524 47.4749 153.561 49.3095 154.869 52.2864L185.107 121.087C186.537 124.342 185.555 128.152 182.73 130.309L118.675 179.212C116.229 181.079 112.907 181.312 110.225 179.803Z" stroke="url(#paint5_linear_0_381)"/>
<path opacity="0.5" d="M82.7016 174.476L33.487 110.661C31.3162 107.846 31.3535 103.911 33.5772 101.138L80.5921 42.5077C82.6263 39.9709 86.0344 38.9848 89.109 40.0434L168.427 67.3549C171.502 68.4135 173.58 71.2889 173.621 74.5403L174.573 149.687C174.618 153.241 172.225 156.365 168.782 157.246L90.7114 177.234C87.7303 177.997 84.5809 176.913 82.7016 174.476Z" stroke="url(#paint6_linear_0_381)"/>
<path opacity="0.571429" d="M59.4483 158.818L39.0806 80.8466C38.1822 77.4074 39.7539 73.8001 42.8844 72.1163L109.07 36.5168C111.934 34.9766 115.457 35.4005 117.873 37.5763L180.215 93.7088C182.631 95.8846 183.421 99.3435 182.188 102.352L153.702 171.897C152.355 175.187 148.932 177.127 145.417 176.593L65.7437 164.487C62.7013 164.025 60.226 161.796 59.4483 158.818Z" stroke="url(#paint7_linear_0_381)"/>
<path opacity="0.642857" d="M44.1613 135.32L55.8788 55.5879C56.3956 52.071 59.2519 49.3646 62.7914 49.0378L137.626 42.1293C140.864 41.8304 143.941 43.597 145.315 46.5441L180.768 122.573C182.142 125.52 181.517 129.013 179.207 131.301L125.812 184.187C123.287 186.688 119.378 187.136 116.351 185.272L47.7415 142.997C45.1216 141.383 43.7139 138.364 44.1613 135.32Z" stroke="url(#paint8_linear_0_381)"/>
<path opacity="0.714286" d="M39.2712 107.716L81.2108 38.9011C83.0607 35.8658 86.7473 34.4906 90.1332 35.5728L161.718 58.4536C164.815 59.4436 166.957 62.272 167.071 65.5217L169.998 149.359C170.112 152.609 168.173 155.58 165.152 156.784L95.3374 184.602C92.0353 185.918 88.2617 184.803 86.2046 181.904L39.5668 116.182C37.7859 113.673 37.6697 110.344 39.2712 107.716Z" stroke="url(#paint9_linear_0_381)"/>
<path opacity="0.785714" d="M45.5552 80.396L111.049 33.4385C113.938 31.3673 117.869 31.5419 120.563 33.861L177.517 82.8934C179.981 85.0149 180.847 88.4554 179.682 91.4911L149.619 169.808C148.454 172.844 145.508 174.821 142.257 174.748L67.1227 173.077C63.569 172.998 60.5309 170.497 59.77 167.025L42.5193 88.3047C41.8606 85.2987 43.0542 82.1891 45.5552 80.396Z" stroke="url(#paint10_linear_0_381)"/>
<path opacity="0.857143" d="M62.015 57.7031L140.65 40.0689C144.119 39.2911 147.669 40.9878 149.242 44.1751L182.51 111.563C183.95 114.479 183.403 117.985 181.144 120.324L122.87 180.668C120.612 183.007 117.127 183.676 114.163 182.339L45.6548 151.443C42.4145 149.982 40.595 146.493 41.2513 143L56.1303 63.7969C56.6985 60.7725 59.0123 58.3765 62.015 57.7031Z" stroke="url(#paint11_linear_0_381)"/>
<path opacity="0.928571" d="M86.0326 43.2454L165.307 57.7382C168.804 58.3775 171.409 61.3265 171.612 64.8753L175.904 139.905C176.09 143.152 174.217 146.165 171.224 147.435L94.004 180.213C91.0108 181.484 87.5422 180.738 85.3359 178.349L34.3458 123.141C31.934 120.53 31.6224 116.607 33.5915 113.648L78.2347 46.5554C79.9394 43.9934 83.0055 42.6919 86.0326 43.2454Z" stroke="url(#paint12_linear_0_381)"/>
<path d="M113.79 39.3215L181.1 83.6372C184.068 85.5919 185.314 89.3243 184.114 92.6703L158.749 163.413C157.652 166.474 154.75 168.516 151.499 168.516H67.61C64.3584 168.516 61.4569 166.474 60.3594 163.413L34.9943 92.6703C33.7945 89.3243 35.0403 85.5918 38.0092 83.6372L105.319 39.3215C107.889 37.6293 111.22 37.6293 113.79 39.3215Z" stroke="url(#paint13_linear_0_381)"/>
<defs>
<linearGradient id="paint0_linear_0_381" x1="86.4566" y1="68.1446" x2="133.272" y2="152.602" gradientUnits="userSpaceOnUse">
<stop offset="0.140625" stop-color="#876CF5" stop-opacity="0"/>
<stop offset="0.458333" stop-color="#1FDBFA" stop-opacity="0.6"/>
<stop offset="1" stop-color="#876CF5" stop-opacity="0.36"/>
</linearGradient>
<linearGradient id="paint1_linear_0_381" x1="104.451" y1="62.4067" x2="114.545" y2="158.442" gradientUnits="userSpaceOnUse">
<stop offset="0.140625" stop-color="#876CF5" stop-opacity="0"/>
<stop offset="0.458333" stop-color="#1FDBFA" stop-opacity="0.6"/>
<stop offset="1" stop-color="#876CF5" stop-opacity="0.36"/>
</linearGradient>
<linearGradient id="paint2_linear_0_381" x1="123.259" y1="64.1568" x2="95.0258" y2="156.502" gradientUnits="userSpaceOnUse">
<stop offset="0.140625" stop-color="#876CF5" stop-opacity="0"/>
<stop offset="0.458333" stop-color="#1FDBFA" stop-opacity="0.6"/>
<stop offset="1" stop-color="#876CF5" stop-opacity="0.36"/>
</linearGradient>
<linearGradient id="paint3_linear_0_381" x1="139.886" y1="73.1159" x2="77.815" y2="147.089" gradientUnits="userSpaceOnUse">
<stop offset="0.140625" stop-color="#876CF5" stop-opacity="0"/>
<stop offset="0.458333" stop-color="#1FDBFA" stop-opacity="0.6"/>
<stop offset="1" stop-color="#876CF5" stop-opacity="0.36"/>
</linearGradient>
<linearGradient id="paint4_linear_0_381" x1="151.691" y1="87.8593" x2="65.6511" y2="131.699" gradientUnits="userSpaceOnUse">
<stop offset="0.140625" stop-color="#876CF5" stop-opacity="0"/>
<stop offset="0.458333" stop-color="#1FDBFA" stop-opacity="0.6"/>
<stop offset="1" stop-color="#876CF5" stop-opacity="0.36"/>
</linearGradient>
<linearGradient id="paint5_linear_0_381" x1="156.797" y1="106.044" x2="60.4676" y2="112.78" gradientUnits="userSpaceOnUse">
<stop offset="0.140625" stop-color="#876CF5" stop-opacity="0"/>
<stop offset="0.458333" stop-color="#1FDBFA" stop-opacity="0.6"/>
<stop offset="1" stop-color="#876CF5" stop-opacity="0.36"/>
</linearGradient>
<linearGradient id="paint6_linear_0_381" x1="154.392" y1="124.777" x2="63.0881" y2="93.3391" gradientUnits="userSpaceOnUse">
<stop offset="0.140625" stop-color="#876CF5" stop-opacity="0"/>
<stop offset="0.458333" stop-color="#1FDBFA" stop-opacity="0.6"/>
<stop offset="1" stop-color="#876CF5" stop-opacity="0.36"/>
</linearGradient>
<linearGradient id="paint7_linear_0_381" x1="144.858" y1="141.082" x2="73.0966" y2="76.4681" gradientUnits="userSpaceOnUse">
<stop offset="0.140625" stop-color="#876CF5" stop-opacity="0"/>
<stop offset="0.458333" stop-color="#1FDBFA" stop-opacity="0.6"/>
<stop offset="1" stop-color="#876CF5" stop-opacity="0.36"/>
</linearGradient>
<linearGradient id="paint8_linear_0_381" x1="129.711" y1="152.366" x2="88.9015" y2="64.8485" gradientUnits="userSpaceOnUse">
<stop offset="0.140625" stop-color="#876CF5" stop-opacity="0"/>
<stop offset="0.458333" stop-color="#1FDBFA" stop-opacity="0.6"/>
<stop offset="1" stop-color="#876CF5" stop-opacity="0.36"/>
</linearGradient>
<linearGradient id="paint9_linear_0_381" x1="111.36" y1="156.834" x2="107.99" y2="60.3286" gradientUnits="userSpaceOnUse">
<stop offset="0.140625" stop-color="#876CF5" stop-opacity="0"/>
<stop offset="0.458333" stop-color="#1FDBFA" stop-opacity="0.6"/>
<stop offset="1" stop-color="#876CF5" stop-opacity="0.36"/>
</linearGradient>
<linearGradient id="paint10_linear_0_381" x1="92.7213" y1="153.777" x2="127.327" y2="63.6261" gradientUnits="userSpaceOnUse">
<stop offset="0.140625" stop-color="#876CF5" stop-opacity="0"/>
<stop offset="0.458333" stop-color="#1FDBFA" stop-opacity="0.6"/>
<stop offset="1" stop-color="#876CF5" stop-opacity="0.36"/>
</linearGradient>
<linearGradient id="paint11_linear_0_381" x1="76.7595" y1="143.68" x2="143.839" y2="74.2171" gradientUnits="userSpaceOnUse">
<stop offset="0.140625" stop-color="#876CF5" stop-opacity="0"/>
<stop offset="0.458333" stop-color="#1FDBFA" stop-opacity="0.6"/>
<stop offset="1" stop-color="#876CF5" stop-opacity="0.36"/>
</linearGradient>
<linearGradient id="paint12_linear_0_381" x1="66.0112" y1="128.148" x2="154.899" y2="90.4177" gradientUnits="userSpaceOnUse">
<stop offset="0.140625" stop-color="#876CF5" stop-opacity="0"/>
<stop offset="0.458333" stop-color="#1FDBFA" stop-opacity="0.6"/>
<stop offset="1" stop-color="#876CF5" stop-opacity="0.36"/>
</linearGradient>
<linearGradient id="paint13_linear_0_381" x1="62.1859" y1="109.652" x2="158.751" y2="109.652" gradientUnits="userSpaceOnUse">
<stop offset="0.140625" stop-color="#876CF5" stop-opacity="0"/>
<stop offset="0.458333" stop-color="#1FDBFA" stop-opacity="0.6"/>
<stop offset="1" stop-color="#876CF5" stop-opacity="0.36"/>
</linearGradient>
</defs>
</svg>
