<svg width="21" height="14" viewBox="0 0 21 14" fill="none" xmlns="http://www.w3.org/2000/svg">
<path d="M3.4314 13.3184C4.40552 13.3184 5.07202 12.9595 5.66528 12.2417L6.9104 10.7476C7.09351 10.5352 7.29126 10.4326 7.50366 10.4326H14.1248C14.3372 10.4326 14.5349 10.5352 14.718 10.7476L15.9631 12.2417C16.5564 12.9595 17.2229 13.3184 18.197 13.3184C19.7864 13.3184 20.863 12.2637 20.863 10.623C20.863 9.91992 20.7019 9.11426 20.4309 8.21338C20.0061 6.79248 19.2664 4.85889 18.5559 3.36475C17.9626 2.1123 17.6477 1.52637 16.1682 1.18945C14.8499 0.88916 13.0334 0.691406 10.8142 0.691406C8.59497 0.691406 6.77856 0.88916 5.46753 1.18945C3.98071 1.52637 3.66577 2.1123 3.07251 3.36475C2.36206 4.85889 1.62231 6.79248 1.19751 8.21338C0.926514 9.11426 0.765381 9.91992 0.765381 10.623C0.765381 12.2637 1.84204 13.3184 3.4314 13.3184ZM5.18921 5.62793C5.18921 5.26904 5.40894 5.04199 5.78247 5.04199H7.00562V3.86279C7.00562 3.49658 7.21802 3.26953 7.5769 3.26953C7.92114 3.26953 8.14087 3.49658 8.14087 3.86279V5.04199H9.29077C9.68628 5.04199 9.92065 5.26904 9.92065 5.62793C9.92065 5.99414 9.68628 6.22119 9.29077 6.22119H8.14087V7.40771C8.14087 7.77393 7.92114 8.00098 7.5769 8.00098C7.21802 8.00098 7.00562 7.77393 7.00562 7.40771V6.22119H5.78247C5.40894 6.22119 5.18921 5.99414 5.18921 5.62793ZM14.0588 4.54395C14.0588 3.97266 14.4983 3.52588 15.0623 3.52588C15.6335 3.52588 16.0657 3.97266 16.0657 4.54395C16.0657 5.10791 15.6335 5.54004 15.0623 5.54004C14.4983 5.54004 14.0588 5.10791 14.0588 4.54395ZM12.0154 6.60205C12.0154 6.03076 12.4548 5.59131 13.0188 5.59131C13.5828 5.59131 14.0222 6.03076 14.0222 6.60205C14.0222 7.17334 13.5828 7.60547 13.0188 7.60547C12.4548 7.60547 12.0154 7.17334 12.0154 6.60205Z" fill="white" fill-opacity="0.8"/>
</svg>
