<svg width="13" height="18" viewBox="0 0 13 18" fill="none" xmlns="http://www.w3.org/2000/svg">
<path d="M3.48267 1.82715H10.2429C10.2063 1.22656 9.86206 0.911621 9.21021 0.911621H4.52271C3.87085 0.911621 3.52661 1.22656 3.48267 1.82715ZM2.28149 3.77539H11.4441C11.3416 3.13818 11.0339 2.7793 10.3235 2.7793H3.40942C2.69897 2.7793 2.38403 3.13818 2.28149 3.77539ZM2.97729 17.0981H10.968C12.2424 17.0981 12.9822 16.3657 12.9822 14.9229V7.07129C12.9822 5.62109 12.2351 4.88867 10.7703 4.88867H2.97729C1.51245 4.88867 0.765381 5.62109 0.765381 7.07129V14.9229C0.765381 16.3657 1.51245 17.0981 2.97729 17.0981ZM4.65454 12.8428C3.30688 12.8428 2.31812 13.6265 1.96655 14.5054V7.14453C1.96655 6.44141 2.34009 6.08252 3.01392 6.08252H10.7336C11.4001 6.08252 11.781 6.44141 11.781 7.14453V14.0952C11.261 13.4067 10.3162 12.8574 9.07104 12.8574C7.08618 12.8574 5.84106 14.2783 5.84106 15.3916C5.84106 15.6187 5.89233 15.7871 5.96558 15.9043H5.10132C5.05737 15.7432 5.0354 15.5674 5.0354 15.3916C5.0354 14.564 5.43091 13.7876 6.08276 13.187C5.7019 12.96 5.23315 12.8428 4.65454 12.8428ZM9.07104 12.0298C9.89868 12.0298 10.6018 11.2974 10.6018 10.3379C10.6018 9.39307 9.89868 8.68994 9.07104 8.68994C8.25073 8.68994 7.53296 9.41504 7.54028 10.3525C7.54028 11.2974 8.25073 12.0298 9.07104 12.0298ZM4.66187 12.125C5.37964 12.125 5.99487 11.4805 5.99487 10.6382C5.99487 9.81787 5.37964 9.20996 4.66187 9.20996C3.94409 9.20996 3.32153 9.83252 3.32153 10.6455C3.32153 11.4805 3.94409 12.125 4.66187 12.125Z" fill="white" fill-opacity="0.8"/>
</svg>
