<svg width="15" height="16" viewBox="0 0 15 16" fill="none" xmlns="http://www.w3.org/2000/svg">
<path d="M7.33521 15.0947C11.217 15.0947 14.4324 11.8794 14.4324 7.99756C14.4324 4.11572 11.2097 0.900391 7.32788 0.900391C3.45337 0.900391 0.238037 4.11572 0.238037 7.99756C0.238037 11.8794 3.45337 15.0947 7.33521 15.0947ZM5.43091 6.63525C5.40894 6.37158 5.28442 6.12988 5.10132 5.9541C5.70923 4.43066 6.6687 3.04639 7.91382 1.92578C8.00171 1.93311 8.09692 1.94775 8.18481 1.9624C7.29858 3.47852 6.76392 5.17773 6.62476 6.94287C6.22192 6.86963 5.81909 6.76709 5.43091 6.63525ZM2.2522 4.65771C3.22632 3.18555 4.83032 2.14551 6.65405 1.93311C5.62866 3.01709 4.83032 4.27686 4.28833 5.64648C4.07593 5.65381 3.8855 5.71973 3.72437 5.82959C3.1897 5.5 2.69897 5.10449 2.2522 4.65771ZM9.49585 4.72363C9.48853 3.94727 9.59106 3.1709 9.81812 2.43848C11.1511 3.04639 12.2424 4.12305 12.865 5.44873C12.1545 5.99072 11.3562 6.40088 10.5139 6.67188C10.3162 6.42285 10.0085 6.25439 9.67163 6.24707C9.56177 5.75635 9.50317 5.24365 9.49585 4.72363ZM8.62427 4.73096C8.63159 5.36816 8.71216 5.99072 8.85132 6.59863C8.73413 6.72314 8.64624 6.86963 8.60229 7.03809C8.42651 7.05273 8.25073 7.06006 8.07495 7.06006C7.8772 7.06006 7.68677 7.05273 7.49634 7.04541C7.61353 5.41211 8.09692 3.85205 8.90259 2.46045C8.71216 3.19287 8.61694 3.94727 8.62427 4.73096ZM1.24146 7.99756C1.24146 7.09668 1.43921 6.23975 1.7981 5.46338C2.24487 5.88086 2.72827 6.25439 3.24829 6.57666C3.24097 6.62793 3.23364 6.68652 3.23364 6.74512C3.23364 7.11865 3.41675 7.44824 3.70239 7.646C3.56323 8.35645 3.48267 9.08154 3.48267 9.82129C2.69165 9.43311 1.94458 8.94971 1.24878 8.36377C1.24146 8.24658 1.24146 8.12207 1.24146 7.99756ZM13.4363 7.99756C13.4363 8.57617 13.3484 9.14746 13.1946 9.68213C12.7917 9.89453 12.3816 10.0776 11.9641 10.2388C11.3123 9.63818 10.7703 8.93506 10.3601 8.15869C10.5432 7.99756 10.675 7.77783 10.719 7.52881C11.5979 7.25049 12.4329 6.84033 13.1946 6.30566C13.3484 6.84033 13.4363 7.41162 13.4363 7.99756ZM6.59546 7.8291C6.59546 8.72266 6.698 9.60156 6.88843 10.4512C6.77856 10.5464 6.67603 10.6636 6.61011 10.7954C5.84106 10.6782 5.08667 10.4805 4.35425 10.2021C4.33228 9.39648 4.39819 8.59814 4.552 7.8291C4.7937 7.78516 5.01343 7.65332 5.16724 7.47021C5.62866 7.62402 6.10474 7.74121 6.59546 7.81445V7.8291ZM8.07495 7.93164C8.29468 7.93164 8.50708 7.92432 8.71948 7.90967C8.89526 8.18066 9.18091 8.37842 9.51782 8.41504C9.90601 9.19873 10.4187 9.9165 11.0339 10.5391C10.2356 10.7588 9.42261 10.8833 8.60962 10.9126C8.46313 10.5464 8.13354 10.2754 7.73804 10.2241C7.56226 9.46973 7.47437 8.70068 7.46704 7.91699C7.66479 7.92432 7.86987 7.93164 8.07495 7.93164ZM1.46851 9.64551C2.11304 10.0996 2.79419 10.4878 3.50464 10.7954C3.54126 11.5278 3.65112 12.2603 3.84155 12.9707C2.71362 12.1724 1.85669 11.0005 1.46851 9.64551ZM7.33521 14.0986C6.50024 14.0986 5.69458 13.9229 4.96216 13.6006C4.66187 12.8096 4.47876 11.9893 4.40552 11.147C5.10132 11.3887 5.81177 11.5645 6.53687 11.667C6.68335 12.0845 7.07153 12.3921 7.53296 12.4141C7.77466 12.9634 8.05298 13.498 8.37524 14.0034C8.03833 14.062 7.68677 14.0986 7.33521 14.0986ZM8.35327 12.0991C8.44849 12.0112 8.52173 11.9014 8.58032 11.7842C9.66431 11.7476 10.741 11.5645 11.7883 11.2275C11.9421 11.3447 12.0959 11.4619 12.2571 11.5718C11.5173 12.5825 10.47 13.3662 9.26147 13.7764C8.90991 13.2417 8.60229 12.6851 8.35327 12.0991Z" fill="white" fill-opacity="0.8"/>
</svg>
