<svg width="17" height="18" viewBox="0 0 17 18" fill="none" xmlns="http://www.w3.org/2000/svg">
<path d="M8.37817 17.347C12.9094 17.347 16.6282 13.6205 16.6282 9.08923C16.6282 4.5658 12.9016 0.839233 8.37817 0.839233C3.84692 0.839233 0.128174 4.5658 0.128174 9.08923C0.128174 13.6205 3.85474 17.347 8.37817 17.347ZM5.31567 13.0033C4.68286 13.2767 4.19849 12.7924 4.47192 12.1595L6.43286 7.77673C6.57349 7.46423 6.77661 7.26892 7.07349 7.14392L11.4329 5.18298C12.0969 4.89392 12.5657 5.3783 12.2922 6.02673L10.3313 10.4017C10.1985 10.6986 9.99536 10.9017 9.69067 11.0345L5.31567 13.0033ZM8.38599 10.1908C8.98755 10.1908 9.47192 9.70642 9.47192 9.10486C9.47192 8.5033 8.98755 8.01111 8.38599 8.01111C7.78442 8.01111 7.29224 8.5033 7.29224 9.10486C7.29224 9.70642 7.78442 10.1908 8.38599 10.1908Z" fill="white"/>
</svg>
