<svg width="69" height="844" viewBox="0 0 69 844" fill="none" xmlns="http://www.w3.org/2000/svg">
<g filter="url(#filter0_bd_0_123)">
<path d="M69 0H269C293.301 0 313 19.6995 313 44V800C313 824.301 293.301 844 269 844H69V547.665C69 515.776 53.7911 485.799 28.0572 466.966L19.0149 460.349C7.69194 452.062 1 438.873 1 424.841V368.694C1 363.791 1.81948 358.922 3.42458 354.29L4.9897 349.772C5.64792 347.872 5.71816 345.818 5.19125 343.878L2.53774 334.106C1.5171 330.348 1 326.47 1 322.576V130.809C1 116.778 7.69192 103.589 19.0148 95.3021L50.9852 71.9054C62.3081 63.619 69 50.4292 69 36.3981V0Z" fill="#383A57" fill-opacity="0.5" style="mix-blend-mode:multiply" shape-rendering="crispEdges"/>
</g>
<defs>
<filter id="filter0_bd_0_123" x="-29" y="-30" width="372" height="904" filterUnits="userSpaceOnUse" color-interpolation-filters="sRGB">
<feFlood flood-opacity="0" result="BackgroundImageFix"/>
<feGaussianBlur in="BackgroundImageFix" stdDeviation="15"/>
<feComposite in2="SourceAlpha" operator="in" result="effect1_backgroundBlur_0_123"/>
<feColorMatrix in="SourceAlpha" type="matrix" values="0 0 0 0 0 0 0 0 0 0 0 0 0 0 0 0 0 0 127 0" result="hardAlpha"/>
<feOffset dx="-1"/>
<feComposite in2="hardAlpha" operator="out"/>
<feColorMatrix type="matrix" values="0 0 0 0 1 0 0 0 0 1 0 0 0 0 1 0 0 0 0.2 0"/>
<feBlend mode="overlay" in2="effect1_backgroundBlur_0_123" result="effect2_dropShadow_0_123"/>
<feBlend mode="normal" in="SourceGraphic" in2="effect2_dropShadow_0_123" result="shape"/>
</filter>
</defs>
</svg>
