<svg width="10" height="15" viewBox="0 0 10 15" fill="none" xmlns="http://www.w3.org/2000/svg">
<path d="M9.28345 3.3501V0.742676C9.28345 0.361816 8.97583 0.112793 8.60229 0.193359L5.0354 0.969727C4.5813 1.06494 4.33228 1.31396 4.33228 1.7168L4.34692 9.41455C4.37622 9.73682 4.22241 9.95654 3.93677 10.0078L2.83081 10.2422C1.43188 10.5352 0.765381 11.2456 0.765381 12.3149C0.765381 13.3916 1.59302 14.146 2.76489 14.146C3.81958 14.146 5.33569 13.3623 5.33569 11.3555V5.02002C5.33569 4.66113 5.39429 4.59521 5.70923 4.52197L8.88794 3.82617C9.12964 3.7749 9.28345 3.5918 9.28345 3.3501Z" fill="white" fill-opacity="0.8"/>
</svg>
