<svg width="13" height="16" viewBox="0 0 13 16" fill="none" xmlns="http://www.w3.org/2000/svg">
<path d="M2.92578 15.4536H11.9126C12.2422 15.4536 12.4985 15.1899 12.4985 14.8677C12.4985 14.604 12.3154 14.3843 12.0811 14.2964C11.2168 13.9375 11.041 12.7949 11.9053 11.938C12.1909 11.6597 12.4985 11.3154 12.4985 10.627V2.76074C12.4985 1.30322 11.7661 0.556152 10.3159 0.556152H2.94775C1.49756 0.556152 0.765137 1.2959 0.765137 2.76074V13.271C0.765137 14.7139 1.50488 15.4536 2.92578 15.4536ZM10.2354 1.75C10.9385 1.75 11.2974 2.12354 11.2974 2.80469V10.4512C11.2974 10.8174 11.0923 11.0225 10.7188 11.0225H3.70947V1.75H10.2354ZM1.96631 11.2935V2.80469C1.96631 2.21143 2.2373 1.85254 2.7793 1.77197V11.0371C2.46436 11.0664 2.19336 11.1543 1.96631 11.2935ZM4.95459 5.03125H10.0376C10.2939 5.03125 10.5063 4.81885 10.5063 4.5625C10.5063 4.30615 10.2939 4.09375 10.0376 4.09375H4.95459C4.69824 4.09375 4.48584 4.30615 4.48584 4.5625C4.48584 4.81885 4.69824 5.03125 4.95459 5.03125ZM4.95459 6.94287H8.81445C9.06348 6.94287 9.27588 6.73047 9.27588 6.47412C9.27588 6.21777 9.06348 6.0127 8.81445 6.0127H4.95459C4.69824 6.0127 4.48584 6.21777 4.48584 6.47412C4.48584 6.73047 4.69824 6.94287 4.95459 6.94287ZM3.02832 14.2817C2.31787 14.2817 1.93701 13.8862 1.93701 13.2271C1.93701 12.6118 2.38379 12.1943 3.08691 12.1943H10.1401C10.2207 12.1943 10.3013 12.187 10.3745 12.1724C10.0449 12.8975 10.0889 13.6665 10.4624 14.2817H3.02832Z" fill="white" fill-opacity="0.8"/>
</svg>
